<?xml version="1.0" encoding="UTF-8"?>
<svg width="7720px" height="7720px" viewBox="0 0 7720 7720" version="1.1" xmlns="http://www.w3.org/2000/svg" xmlns:xlink="http://www.w3.org/1999/xlink">
    <!-- Generator: Sketch 3.8.1 (29687) - http://www.bohemiancoding.com/sketch -->
    <title>logo</title>
    <desc>Created with Sketch.</desc>
    <defs></defs>
    <g id="Page-1" stroke="none" stroke-width="1" fill="none" fill-rule="evenodd">
        <g id="logo">
            <g id="logo-master">
                <circle id="Oval" fill="#FFFFFF" cx="3860" cy="3860" r="3860"></circle>
                <g id="Group" transform="translate(806.000000, 742.000000)">
                    <path d="M6107,3114 L6086,3114 L6086,3114 L6082,2955 L6070,2798 L6051,2643 L6024,2491 L5991,2341 L5950,2194 L5902,2050 L5848,1910 L5787,1773 L5720,1640 L5647,1510 L5568,1384 L5484,1263 L5394,1146 L5298,1034 L5198,927 L5093,824 L4983,727 L4868,635 L4749,549 L4626,469 L4499,394 L4368,326 L4234,264 L4096,208 L3955,160 L3812,118 L3665,84 L3515,56 L3364,37 L3210,25 L3054,21 L3054,0 L3211,4 L3366,16 L3519,36 L3669,63 L3817,98 L3962,140 L4104,189 L4242,245 L4377,307 L4509,376 L4637,451 L4761,532 L4881,619 L4996,711 L5107,809 L5213,912 L5314,1020 L5410,1133 L5500,1251 L5586,1373 L5665,1499 L5738,1630 L5806,1764 L5867,1902 L5922,2043 L5970,2188 L6011,2336 L6045,2486 L6072,2640 L6091,2796 L6103,2954 L6107,3114 L6107,3114 L6107,3114 Z M3054,6228 L3054,6207 L3054,6207 L3210,6203 L3364,6191 L3515,6172 L3665,6144 L3812,6110 L3955,6068 L4096,6020 L4234,5964 L4368,5902 L4499,5834 L4626,5760 L4749,5679 L4868,5593 L4983,5501 L5093,5404 L5198,5301 L5298,5194 L5394,5082 L5484,4965 L5568,4844 L5647,4718 L5720,4589 L5787,4455 L5848,4318 L5902,4178 L5950,4034 L5991,3887 L6024,3737 L6051,3585 L6070,3430 L6082,3273 L6086,3114 L6107,3114 L6103,3274 L6091,3432 L6072,3588 L6045,3742 L6011,3892 L5970,4040 L5922,4185 L5867,4326 L5806,4464 L5738,4598 L5665,4729 L5586,4855 L5500,4977 L5410,5095 L5314,5208 L5213,5316 L5107,5419 L4996,5517 L4881,5609 L4761,5696 L4637,5777 L4509,5852 L4377,5921 L4242,5983 L4104,6039 L3962,6088 L3817,6130 L3669,6165 L3519,6192 L3366,6212 L3211,6224 L3054,6228 L3054,6228 L3054,6228 Z M0,3114 L21,3114 L21,3114 L25,3273 L37,3430 L56,3585 L83,3737 L117,3887 L158,4034 L205,4178 L260,4318 L320,4455 L387,4589 L460,4718 L539,4844 L624,4965 L714,5082 L809,5194 L910,5301 L1015,5404 L1125,5501 L1239,5593 L1358,5679 L1481,5760 L1608,5834 L1739,5902 L1873,5964 L2011,6020 L2152,6068 L2296,6110 L2443,6144 L2592,6172 L2744,6191 L2898,6203 L3054,6207 L3054,6228 L2897,6224 L2742,6212 L2589,6192 L2438,6165 L2291,6130 L2146,6088 L2004,6039 L1865,5983 L1730,5921 L1598,5852 L1470,5777 L1347,5696 L1227,5609 L1111,5517 L1001,5419 L895,5316 L794,5208 L698,5095 L607,4977 L522,4855 L442,4729 L369,4598 L302,4464 L240,4326 L186,4185 L138,4040 L97,3892 L63,3742 L36,3588 L16,3432 L4,3274 L0,3114 L0,3114 L0,3114 Z M3054,0 L3054,21 L3054,21 L2898,25 L2744,37 L2592,56 L2443,84 L2296,118 L2152,160 L2011,208 L1873,264 L1739,326 L1608,394 L1481,469 L1358,549 L1239,635 L1125,727 L1015,824 L910,927 L809,1034 L714,1146 L624,1263 L539,1384 L460,1510 L387,1640 L320,1773 L260,1910 L205,2050 L158,2194 L117,2341 L83,2491 L56,2643 L37,2798 L25,2955 L21,3114 L0,3114 L4,2954 L16,2796 L36,2640 L63,2486 L97,2336 L138,2188 L186,2043 L240,1902 L302,1764 L369,1630 L442,1499 L522,1373 L607,1251 L698,1133 L794,1020 L895,912 L1001,809 L1111,711 L1227,619 L1347,532 L1470,451 L1598,376 L1730,307 L1865,245 L2004,189 L2146,140 L2291,98 L2438,63 L2589,36 L2742,16 L2897,4 L3054,0 L3054,0 L3054,0 Z" id="Shape" fill="#000000"></path>
                    <path d="M3054,10 C4734,10 6097,1400 6097,3114 C6097,4828 4734,6218 3054,6218 C1373,6218 11,4828 11,3114 C11,1400 1373,10 3054,10 L3054,10 Z" id="1" fill="#FFFF99"></path>
                </g>
                <g id="Group" transform="translate(1037.000000, 1582.000000)">
                    <path d="M1058,4830 C1072,4158 2191,4106 2186,3454 C2180,2707 -1561,2269 759,0 L2757,0 L2774,5395 C1976,5356 1513,5100 1058,4830 L1058,4830 Z" id="Shape" stroke="#FFFFFF" stroke-width="222.22"></path>
                    <path d="M1058,4830 C1072,4158 2191,4106 2186,3454 C2180,2707 -1561,2269 759,0 L2757,0 L2774,5395 C1976,5356 1513,5100 1058,4830 L1058,4830 Z" id="1" fill="#FFCC00"></path>
                </g>
                <g id="Group" transform="translate(1037.000000, 1582.000000)">
                    <path d="M1058,4830 C1072,4158 2191,4106 2186,3454 C2180,2707 -1561,2269 759,0 L2757,0 L2774,5395 C1976,5356 1513,5100 1058,4830 L1058,4830 Z" id="Shape" stroke="#000000" stroke-width="20.8307"></path>
                    <path d="M1058,4830 C1072,4158 2191,4106 2186,3454 C2180,2707 -1561,2269 759,0 L2757,0 L2774,5395 C1976,5356 1513,5100 1058,4830 L1058,4830 Z" id="1" fill="#FFCC00"></path>
                </g>
                <g id="Group" transform="translate(3916.000000, 1582.000000)">
                    <path d="M1716,4830 C1703,4158 584,4106 589,3454 C595,2707 4335,2269 2016,0 L18,0 L0,5395 C799,5356 1262,5100 1716,4830 L1716,4830 Z" id="Shape" stroke="#FFFFFF" stroke-width="222.22"></path>
                    <path d="M1716,4830 C1703,4158 584,4106 589,3454 C595,2707 4335,2269 2016,0 L18,0 L0,5395 C799,5356 1262,5100 1716,4830 L1716,4830 Z" id="1" fill="#FF8D41"></path>
                </g>
                <g id="Group" transform="translate(3916.000000, 1582.000000)">
                    <path d="M1716,4830 C1703,4158 584,4106 589,3454 C595,2707 4335,2269 2016,0 L18,0 L0,5395 C799,5356 1262,5100 1716,4830 L1716,4830 Z" id="Shape" stroke="#000000" stroke-width="20.8307"></path>
                    <path d="M1716,4830 C1703,4158 584,4106 589,3454 C595,2707 4335,2269 2016,0 L18,0 L0,5395 C799,5356 1262,5100 1716,4830 L1716,4830 Z" id="1" fill="#FF8D41"></path>
                </g>
                <g id="Group" transform="translate(815.000000, 3028.000000)">
                    <path d="M5981,21 C6049,278 6085,549 6085,828 C6085,1822 5627,2706 4915,3274 C4859,2948 4579,2770 4301,2593 C4047,2432 3796,2272 3798,2009 C3800,1839 4144,1650 4549,1426 C4914,1225 5324,999 5612,704 C5806,506 5945,281 5981,21 L5981,21 Z M1177,3280 C460,2712 0,1825 0,828 C0,541 38,263 109,0 C141,269 282,501 481,704 C769,999 1179,1225 1544,1426 C1949,1650 2293,1839 2295,2009 C2297,2272 2046,2432 1792,2593 C1513,2771 1231,2950 1177,3280 L1177,3280 Z" id="Shape" stroke="#000000" stroke-width="20.8307"></path>
                    <path d="M5981,21 C6049,278 6085,549 6085,828 C6085,1822 5627,2706 4915,3274 C4859,2948 4579,2770 4301,2593 C4047,2432 3796,2272 3798,2009 C3800,1839 4144,1650 4549,1426 C4914,1225 5324,999 5612,704 C5806,506 5945,281 5981,21 L5981,21 Z M1177,3280 C460,2712 0,1825 0,828 C0,541 38,263 109,0 C141,269 282,501 481,704 C769,999 1179,1225 1544,1426 C1949,1650 2293,1839 2295,2009 C2297,2272 2046,2432 1792,2593 C1513,2771 1231,2950 1177,3280 L1177,3280 Z" id="1" fill="#FFFF99"></path>
                </g>
                <path d="M1899,1473 L5826,1473 C5963,1589 6090,1716 6205,1854 L1526,1854 C1641,1716 1762,1589 1899,1473 L1899,1473 Z" id="Shape" fill="#663333"></path>
                <polygon id="Shape" stroke="#FFFFFF" stroke-width="41.6654" fill="#663399" points="1726 4973 1159 5843 1042 5254 1726 4973 2117 5661 1265 7048 633 6650"></polygon>
                <polygon id="Shape" stroke="#FFFFFF" stroke-width="41.6654" fill="#663399" points="5994 4973 6561 5843 6678 5254 5994 4973 5604 5661 6455 7048 7087 6650"></polygon>
                <path d="M6696,5266 L6976,5813 C5839,6238 5126,6544 3917,6566 C2949,6584 1983,6275 726,5805 L1041,5266 C2023,5679 2981,5958 3859,5952 C4878,5985 5767,5657 6696,5266 L6696,5266 Z" id="Shape" stroke="#FFFFFF" stroke-width="27.7756" fill="#663399"></path>
                <path d="M715,5333 L715,5333 L715,5334 C716,5334 716,5335 716,5336 C716,5337 717,5337 717,5339 L717,5341 C718,5342 718,5343 718,5344 L719,5349 C720,5350 720,5351 720,5352 C720,5353 720,5354 721,5355 L721,5358 C721,5359 721,5360 722,5361 L722,5367 C723,5371 723,5369 723,5373 L723,5379 C723,5381 723,5378 723,5379 L723,5380 L718,5380 L714,5380 C711,5379 707,5380 704,5379 L700,5379 C698,5379 698,5378 696,5378 L694,5378 L692,5378 C691,5377 690,5377 690,5377 L689,5377 L688,5376 C686,5377 685,5376 683,5376 L682,5376 C681,5375 682,5376 681,5375 C680,5375 680,5376 677,5374 L675,5374 L672,5374 C670,5373 671,5373 670,5373 L669,5373 C668,5372 668,5372 666,5372 C665,5372 665,5371 664,5371 L662,5371 L655,5368 C653,5368 652,5367 651,5367 C650,5367 650,5367 649,5366 C648,5366 648,5367 648,5366 C647,5366 648,5366 647,5366 C647,5365 646,5366 646,5365 L645,5365 C644,5365 645,5365 644,5365 L635,5360 C634,5360 635,5360 634,5360 C634,5360 634,5360 633,5360 L629,5357 L627,5357 C626,5356 627,5356 626,5356 C626,5362 628,5430 628,5430 L628,5430 L628,5430 C629,5430 632,5428 633,5427 L638,5425 C639,5425 640,5424 641,5424 C642,5423 641,5424 642,5423 L655,5418 C656,5418 656,5417 658,5417 L659,5417 C660,5416 660,5416 661,5416 C662,5416 664,5415 664,5415 L665,5415 C665,5414 664,5415 665,5414 L667,5414 C668,5413 669,5413 669,5413 L671,5413 C671,5412 672,5412 673,5412 L674,5412 C675,5411 676,5411 676,5411 L678,5411 C679,5410 679,5410 680,5410 L681,5410 C682,5410 682,5410 683,5409 L685,5409 L692,5407 C695,5406 697,5407 700,5406 C702,5405 705,5406 708,5405 C710,5404 722,5404 724,5404 C725,5406 725,5416 725,5417 L724,5419 L724,5424 L724,5425 C723,5427 724,5428 723,5429 C722,5432 723,5432 722,5435 C722,5436 721,5442 721,5443 C720,5444 720,5446 720,5447 C719,5449 720,5448 720,5450 C719,5451 719,5450 719,5453 C719,5454 719,5453 718,5456 C718,5458 718,5456 717,5459 L717,5461 C716,5461 717,5462 716,5462 L716,5464 L716,5465 C715,5466 715,5465 715,5466 C715,5468 714,5468 714,5469 L714,5471 C713,5471 713,5472 713,5472 L713,5474 L711,5478 L711,5479 L708,5486 C707,5488 705,5493 704,5494 C704,5495 704,5494 703,5495 L701,5500 C700,5501 700,5501 700,5502 L775,5500 C775,5498 774,5497 773,5495 C772,5494 772,5494 771,5492 L771,5492 C771,5491 771,5491 770,5491 C770,5490 766,5482 766,5481 C764,5481 765,5481 764,5479 C764,5479 764,5479 764,5478 C764,5478 764,5478 763,5477 C763,5476 763,5477 763,5476 C763,5476 763,5475 762,5475 C762,5475 762,5475 762,5474 L762,5473 L761,5472 L758,5464 C758,5463 758,5464 758,5463 C757,5461 757,5461 757,5460 L755,5455 C755,5453 755,5455 754,5452 L754,5451 C753,5450 753,5449 753,5448 C753,5447 752,5447 752,5446 L752,5443 C751,5443 751,5442 751,5441 C751,5440 751,5440 750,5439 L750,5436 C749,5433 750,5432 749,5431 C748,5428 749,5428 748,5426 L746,5415 C745,5401 745,5403 750,5403 C753,5403 758,5403 760,5404 L764,5404 L768,5404 C769,5405 771,5404 772,5405 L774,5405 C779,5405 776,5406 778,5406 C780,5406 780,5406 782,5407 L784,5407 C786,5407 785,5407 788,5408 L790,5408 L792,5408 C793,5409 792,5409 794,5409 C798,5410 795,5409 798,5410 C799,5410 799,5410 799,5411 L802,5411 L803,5411 C805,5412 804,5411 805,5412 L807,5412 C808,5413 807,5413 809,5413 C810,5413 810,5413 810,5414 L811,5414 L812,5414 C812,5415 812,5414 812,5415 C813,5414 814,5415 815,5416 L817,5416 L818,5416 C820,5417 819,5417 820,5417 C821,5417 820,5417 823,5418 L824,5419 L830,5421 C831,5422 831,5422 832,5422 L835,5423 C835,5424 835,5424 837,5424 C837,5425 837,5424 838,5425 L840,5425 L840,5426 C841,5427 843,5428 843,5428 L843,5409 L842,5371 C842,5366 842,5358 841,5353 C841,5353 841,5353 840,5353 L835,5356 C834,5357 834,5357 833,5357 L831,5358 C830,5358 830,5358 830,5359 L829,5359 L829,5359 C828,5360 828,5360 827,5360 C826,5360 826,5360 825,5361 L823,5362 C823,5362 822,5362 822,5363 L820,5363 L818,5364 C817,5365 817,5364 816,5365 L815,5365 C812,5366 814,5366 811,5366 C810,5367 811,5367 810,5367 L802,5369 C802,5370 802,5370 801,5370 C801,5370 799,5371 798,5371 L795,5372 L794,5372 C793,5372 793,5372 792,5373 L782,5375 C781,5375 780,5376 779,5376 C775,5376 776,5377 771,5377 C770,5377 769,5377 768,5378 C766,5378 763,5378 760,5379 L753,5379 C752,5379 745,5380 745,5379 L744,5375 C744,5370 744,5371 745,5367 L745,5362 L746,5354 C747,5351 746,5350 747,5349 L747,5348 L747,5347 L747,5347 C747,5346 747,5345 748,5344 L748,5340 C749,5339 749,5338 749,5337 C749,5336 749,5337 749,5335 C749,5335 749,5334 750,5333 L750,5331 C750,5329 750,5330 751,5329 L751,5326 C752,5325 751,5327 752,5325 C752,5324 751,5324 752,5323 C753,5322 752,5322 753,5321 C753,5320 753,5321 753,5320 L753,5318 L754,5317 L754,5316 C755,5315 755,5316 755,5314 C755,5313 755,5313 756,5312 L756,5311 L756,5310 L757,5309 C757,5308 757,5309 757,5308 C758,5307 757,5307 758,5306 C758,5305 758,5306 758,5305 C758,5304 758,5304 759,5303 C759,5302 761,5298 762,5296 L766,5288 L766,5287 L766,5287 C767,5286 766,5287 767,5285 L769,5283 C769,5282 769,5283 769,5282 L769,5282 L694,5284 C694,5285 695,5285 695,5286 L699,5294 L700,5294 L700,5294 L700,5295 L701,5296 L701,5298 C702,5299 703,5301 704,5302 L704,5304 L708,5313 C709,5314 709,5314 709,5315 L712,5323 C713,5325 713,5325 713,5326 C713,5327 713,5327 714,5327 L714,5329 C714,5331 715,5330 715,5333 L715,5333 Z" id="Shape" stroke="#FF0000" stroke-width="3" fill="#FF0000"></path>
                <path d="M6963,5333 L6963,5333 L6964,5334 L6964,5336 C6965,5337 6965,5337 6965,5339 C6965,5340 6965,5340 6966,5341 L6966,5344 L6968,5349 L6968,5352 C6969,5353 6969,5354 6969,5355 L6969,5358 C6970,5359 6970,5360 6970,5361 C6970,5363 6970,5365 6971,5367 L6971,5373 L6972,5379 C6971,5381 6972,5378 6971,5379 L6971,5380 L6967,5380 L6962,5380 C6959,5379 6956,5380 6953,5379 L6949,5379 C6947,5379 6946,5378 6944,5378 L6942,5378 L6940,5378 C6940,5377 6939,5377 6938,5377 L6937,5377 L6936,5376 C6935,5377 6933,5376 6932,5376 L6930,5376 C6930,5375 6930,5376 6930,5375 C6928,5375 6929,5376 6925,5374 L6923,5374 L6921,5374 C6919,5373 6920,5373 6918,5373 L6918,5373 C6916,5372 6916,5372 6915,5372 C6913,5372 6914,5371 6913,5371 L6911,5371 L6903,5368 C6902,5368 6901,5367 6899,5367 C6898,5367 6899,5367 6898,5366 C6896,5366 6897,5367 6896,5366 L6896,5366 C6895,5365 6895,5366 6894,5365 L6894,5365 L6893,5365 L6883,5360 L6883,5360 L6882,5360 L6877,5357 C6876,5357 6877,5357 6876,5357 C6874,5356 6875,5356 6874,5356 C6874,5362 6876,5430 6876,5430 L6877,5430 L6877,5430 C6878,5430 6881,5428 6882,5427 L6886,5425 C6887,5425 6888,5424 6890,5424 C6891,5423 6890,5424 6890,5423 L6903,5418 C6904,5418 6904,5417 6906,5417 L6908,5417 C6908,5416 6909,5416 6909,5416 C6910,5416 6912,5415 6913,5415 L6913,5415 C6914,5414 6913,5415 6914,5414 L6916,5414 C6917,5413 6917,5413 6918,5413 L6919,5413 C6920,5412 6921,5412 6921,5412 L6923,5412 C6923,5411 6924,5411 6925,5411 L6926,5411 C6927,5410 6928,5410 6928,5410 L6930,5410 C6930,5410 6931,5410 6932,5409 L6933,5409 L6941,5407 C6943,5406 6946,5407 6948,5406 C6950,5405 6954,5406 6956,5405 C6958,5404 6971,5404 6973,5404 L6973,5417 L6973,5419 C6972,5420 6973,5422 6972,5424 L6972,5425 L6972,5429 C6971,5432 6972,5432 6971,5435 C6970,5436 6970,5442 6969,5443 L6969,5447 C6968,5449 6968,5448 6968,5450 C6968,5451 6968,5450 6967,5453 C6967,5454 6967,5453 6967,5456 C6966,5458 6966,5456 6966,5459 C6965,5460 6965,5460 6965,5461 L6965,5462 C6965,5463 6965,5463 6964,5464 L6964,5465 C6964,5466 6964,5465 6963,5466 L6963,5469 C6962,5470 6962,5470 6962,5471 L6962,5472 C6961,5473 6961,5473 6961,5474 C6960,5476 6960,5476 6960,5478 L6959,5479 L6956,5486 C6956,5488 6954,5493 6953,5494 C6952,5495 6952,5494 6952,5495 L6949,5500 L6949,5502 L7024,5500 C7024,5498 7022,5497 7021,5495 C7021,5494 7020,5494 7020,5492 C7020,5492 7020,5492 7019,5492 L7019,5491 C7018,5490 7015,5482 7014,5481 C7013,5481 7013,5481 7013,5479 C7012,5479 7012,5479 7012,5478 C7012,5478 7012,5478 7012,5477 C7011,5476 7012,5477 7011,5476 L7011,5475 C7011,5475 7011,5475 7010,5474 L7010,5473 C7010,5472 7010,5472 7009,5472 L7007,5464 C7006,5463 7007,5464 7006,5463 C7005,5461 7006,5461 7005,5460 L7004,5455 C7003,5453 7003,5455 7003,5452 L7002,5451 L7002,5448 C7001,5447 7001,5447 7001,5446 C7000,5443 7001,5444 7000,5443 L7000,5441 C6999,5440 6999,5440 6999,5439 C6999,5438 6999,5437 6998,5436 C6997,5433 6998,5432 6997,5431 C6996,5428 6997,5428 6996,5426 L6995,5415 C6994,5401 6993,5403 6999,5403 C7001,5403 7006,5403 7008,5404 L7012,5404 L7016,5404 C7018,5405 7020,5404 7021,5405 L7023,5405 C7028,5405 7025,5406 7027,5406 C7029,5406 7028,5406 7031,5407 L7033,5407 C7035,5407 7033,5407 7037,5408 L7038,5408 L7041,5408 C7042,5409 7041,5409 7042,5409 C7046,5410 7043,5409 7046,5410 C7047,5410 7047,5410 7048,5411 L7050,5411 L7052,5411 C7053,5412 7053,5411 7054,5412 L7056,5412 C7057,5413 7056,5413 7057,5413 C7058,5413 7058,5413 7059,5414 L7060,5414 L7060,5414 C7061,5415 7060,5414 7060,5415 C7062,5414 7063,5415 7064,5416 L7065,5416 L7067,5416 C7068,5417 7067,5417 7068,5417 C7070,5417 7069,5417 7071,5418 C7072,5418 7072,5419 7073,5419 L7079,5421 C7080,5422 7079,5422 7080,5422 L7083,5423 C7084,5424 7083,5424 7085,5424 C7085,5425 7085,5424 7086,5425 L7088,5425 L7089,5426 C7089,5427 7091,5428 7092,5428 C7092,5422 7092,5415 7091,5409 L7090,5371 L7090,5353 L7089,5353 L7084,5356 C7082,5357 7083,5357 7081,5357 L7079,5358 C7079,5358 7079,5358 7078,5359 L7078,5359 L7077,5359 L7076,5360 C7075,5360 7075,5360 7074,5361 L7072,5362 C7071,5362 7071,5362 7070,5363 L7069,5363 L7066,5364 C7065,5365 7065,5364 7064,5365 C7064,5365 7064,5365 7063,5365 C7060,5366 7063,5366 7060,5366 C7058,5367 7060,5367 7058,5367 L7051,5369 C7050,5370 7051,5370 7050,5370 C7049,5370 7047,5371 7047,5371 L7044,5372 L7042,5372 C7041,5372 7041,5372 7040,5373 L7030,5375 C7029,5375 7028,5376 7027,5376 C7024,5376 7024,5377 7020,5377 C7019,5377 7018,5377 7017,5378 C7014,5378 7011,5378 7009,5379 L7001,5379 C7001,5379 6994,5380 6993,5379 L6993,5375 L6993,5367 L6993,5362 L6994,5354 C6995,5351 6995,5350 6995,5349 L6995,5348 C6995,5348 6995,5347 6996,5347 L6996,5347 C6995,5346 6996,5345 6996,5344 C6997,5343 6996,5343 6997,5340 L6997,5337 C6997,5336 6998,5337 6998,5335 L6998,5333 C6998,5332 6999,5332 6999,5331 L6999,5329 C7000,5328 6999,5327 7000,5326 C7000,5325 7000,5327 7000,5325 C7000,5324 7000,5324 7001,5323 L7001,5321 C7001,5320 7001,5321 7002,5320 L7002,5318 L7002,5317 L7003,5316 C7003,5315 7003,5316 7003,5314 C7004,5313 7004,5313 7004,5312 L7004,5311 L7005,5310 L7005,5309 C7005,5308 7005,5309 7006,5308 L7006,5306 C7007,5305 7006,5306 7007,5305 L7007,5303 C7008,5302 7009,5298 7010,5296 L7014,5288 L7014,5287 L7015,5287 C7015,5286 7014,5287 7015,5285 L7017,5283 C7017,5282 7017,5283 7017,5282 L7017,5282 L6942,5284 C6942,5285 6943,5285 6944,5286 L6948,5294 L6948,5294 L6948,5294 L6948,5295 L6949,5296 C6950,5298 6949,5297 6950,5298 C6951,5299 6952,5301 6952,5302 C6953,5303 6953,5303 6953,5304 L6957,5313 L6957,5315 L6960,5323 C6961,5325 6961,5325 6961,5326 L6962,5327 L6962,5329 C6963,5331 6963,5330 6963,5333 L6963,5333 Z" id="Shape" stroke="#FF0000" stroke-width="3" fill="#FF0000"></path>
                <rect id="Rectangle-path" fill="#663333" transform="translate(3859.802460, 3875.225020) rotate(90.000000) translate(-3859.802460, -3875.225020) " x="731.76144" y="3671.31748" width="6256.08204" height="407.81508"></rect>
                <g id="Group" transform="translate(3273.000000, 1170.000000)">
                    <path d="M198,657 L166,647 C163,606 159,637 174,613 C316,585 351,393 194,325 L216,262 C409,353 395,246 472,206 L483,224 L522,178 C511,168 497,158 482,142 C450,108 453,63 407,29 C324,-34 191,11 176,117 C162,213 187,179 144,283 C117,348 94,310 40,366 C-31,441 -2,575 96,602 C121,626 118,635 103,661 C39,687 1,751 11,822 C22,905 103,913 119,959 L120,1042 C10,1083 -27,1201 56,1286 C75,1305 79,1306 97,1319 C126,1340 127,1305 127,1402 L189,1366 C191,1308 200,1343 254,1298 C284,1273 301,1246 306,1206 C320,1107 251,1075 183,1032 L181,943 C341,908 344,698 198,657 L198,657 Z" id="Shape" stroke="#6699FF" stroke-width="27.7756" fill="#6699FF"></path>
                    <path d="M183,1264 C66,1301 36,1127 135,1103 C243,1077 295,1230 183,1264 L183,1264 Z" id="Shape" fill="#FFFFFF"></path>
                    <path d="M197,869 C94,932 22,765 114,721 C210,674 298,807 197,869 L197,869 Z" id="Shape" fill="#FFFFFF"></path>
                    <path d="M167,547 C56,576 28,409 125,385 C237,357 279,518 167,547 L167,547 Z" id="Shape" fill="#FFFFFF"></path>
                    <path d="M358,218 C247,281 191,118 280,73 C369,29 468,157 358,218 L358,218 Z" id="Shape" fill="#FFFFFF"></path>
                </g>
                <g id="Group" transform="translate(3925.000000, 1170.000000)">
                    <path d="M324,657 L356,647 C359,606 363,637 348,613 C206,585 171,393 328,325 L306,262 C113,353 127,246 50,206 L39,224 L0,178 C11,168 25,158 40,142 C73,108 69,63 115,29 C198,-34 332,11 346,117 C360,213 336,179 378,283 C406,348 429,310 482,366 C553,441 524,575 426,602 C401,626 404,635 420,661 C484,687 521,751 512,822 C500,905 419,913 403,959 L402,1042 C512,1083 549,1201 466,1286 C447,1305 443,1306 425,1319 C396,1340 396,1305 395,1402 L333,1366 C331,1308 323,1343 269,1298 C238,1273 221,1246 216,1206 C203,1107 271,1075 340,1032 L341,943 C181,908 178,698 324,657 L324,657 Z" id="Shape" stroke="#6699FF" stroke-width="27.7756" fill="#6699FF"></path>
                    <path d="M339,1264 C456,1301 486,1127 387,1103 C280,1077 228,1230 339,1264 L339,1264 Z" id="Shape" fill="#FFFFFF"></path>
                    <path d="M325,869 C429,932 500,765 408,721 C312,674 224,807 325,869 L325,869 Z" id="Shape" fill="#FFFFFF"></path>
                    <path d="M356,547 C466,576 495,409 398,385 C285,357 243,518 356,547 L356,547 Z" id="Shape" fill="#FFFFFF"></path>
                    <path d="M164,218 C276,281 331,118 242,73 C154,29 54,157 164,218 L164,218 Z" id="Shape" fill="#FFFFFF"></path>
                </g>
                <g id="Group" transform="translate(3232.000000, 4655.000000)">
                    <path d="M1040,23 C1043,23 1048,24 1054,24 C1058,57 1070,101 1039,113 C971,146 927,188 933,271 C941,371 1019,366 1048,418 C1069,502 938,483 933,606 C929,692 973,731 1044,761 L1043,814 C1039,832 798,967 1029,1116 C1056,1143 1050,1138 1043,1187 L945,1195 L944,1364 C913,1382 859,1374 818,1374 L818,1617 L945,1617 L945,2001 L1196,2001 L1197,1619 L1329,1617 L1331,1374 L1197,1371 C1180,1317 1189,1245 1190,1187 L1108,1186 L1106,1137 C1137,1086 1225,1102 1228,981 C1230,893 1187,847 1106,829 L1106,772 C1108,770 1111,768 1112,767 L1153,743 C1257,685 1267,518 1110,470 L1109,403 C1282,343 1255,145 1126,119 L1109,106 L1109,10 L1128,0 L1040,23 L1040,23 Z" id="Shape" stroke="#6699FF" stroke-width="27.7756" fill="#6699FF"></path>
                    <path d="M843,73 L1019,35 C1024,31 1027,28 1029,26 L843,73 L843,73 Z" id="Shape" stroke="#000000" stroke-width="3" fill="#FFFFFF"></path>
                    <path d="M596,856 L628,866 C630,907 635,876 620,900 C478,928 443,1120 600,1188 L577,1251 C385,1160 399,1267 322,1307 L281,1241 C327,1184 371,1148 343,1059 C312,962 253,991 204,949 C207,864 314,906 315,772 C316,643 219,660 193,605 C174,521 313,552 319,418 C322,337 278,285 204,263 L206,165 L405,146 L0,158 C42,161 88,162 140,162 L142,264 C-9,300 -22,497 131,549 L130,605 C103,671 4,652 21,793 C36,911 147,886 145,949 C132,997 29,1018 59,1144 C77,1224 152,1255 226,1257 C246,1329 271,1327 312,1371 C344,1405 340,1449 386,1484 C470,1547 603,1501 618,1396 C632,1300 607,1333 650,1230 C677,1164 700,1203 754,1147 C825,1072 796,938 698,911 C673,887 676,878 691,852 C755,826 793,762 783,691 C772,607 691,600 675,554 L674,471 C784,429 821,312 738,226 C719,207 715,207 697,194 C668,172 667,208 666,111 L843,73 L405,146 L605,128 C604,212 599,166 540,215 C510,239 493,267 487,307 C474,406 543,438 611,480 L612,570 C453,605 449,815 596,856 L596,856 Z" id="Shape" stroke="#6699FF" stroke-width="27.7756" fill="#6699FF"></path>
                    <path d="M1039,189 C1151,125 1215,288 1117,334 C1020,379 942,244 1039,189 L1039,189 Z" id="Shape" fill="#FFFFFF"></path>
                    <path d="M611,248 C728,212 758,385 659,409 C551,436 499,283 611,248 L611,248 Z" id="Shape" fill="#FFFFFF"></path>
                    <path d="M138,331 C246,281 304,448 206,485 C99,525 38,377 138,331 L138,331 Z" id="Shape" fill="#FFFFFF"></path>
                    <path d="M1046,540 C1150,484 1217,657 1112,693 C1009,728 945,594 1046,540 L1046,540 Z" id="Shape" fill="#FFFFFF"></path>
                    <path d="M596,644 C700,580 772,747 680,792 C584,839 495,706 596,644 L596,644 Z" id="Shape" fill="#FFFFFF"></path>
                    <path d="M127,695 C222,638 306,791 209,842 C116,891 24,758 127,695 L127,695 Z" id="Shape" fill="#FFFFFF"></path>
                    <path d="M1039,908 C1150,837 1211,1005 1123,1050 C1028,1098 939,971 1039,908 L1039,908 Z" id="Shape" fill="#FFFFFF"></path>
                    <path d="M627,965 C738,937 766,1103 669,1127 C557,1155 515,995 627,965 L627,965 Z" id="Shape" fill="#FFFFFF"></path>
                    <path d="M180,1028 C295,1000 325,1163 231,1189 C111,1221 74,1055 180,1028 L180,1028 Z" id="Shape" fill="#FFFFFF"></path>
                    <path d="M436,1294 C547,1232 603,1395 514,1439 C425,1484 326,1355 436,1294 L436,1294 Z" id="Shape" fill="#FFFFFF"></path>
                    <polygon id="Shape" fill="#FFFFFF" points="1008 1250 1134 1248 1134 1427 1266 1429 1267 1554 1134 1558 1132 1939 1008 1935 1006 1555 875 1555 876 1429 1008 1429"></polygon>
                </g>
                <path d="M3659,2576 C3074,2218 2846,2839 2296,2527 L2287,4413 C2893,4814 3172,4082 3847,4563 L3988,4461 C4680,4201 4772,4765 5415,4412 L5415,2491 C4796,2844 4678,2228 4036,2573 L3847,2679 L3659,2576 L3659,2576 Z" id="Shape" stroke="#000000" stroke-width="27.7756" fill="#FFFFFF"></path>
                <g id="Group" transform="translate(1997.000000, 4402.000000)" stroke="#000000" stroke-width="27.7756" fill="#CC9933">
                    <path d="M1850,168 C1353,-304 765,411 290,18 C355,243 268,342 0,503 C500,723 1060,233 1851,532 L1850,168 L1850,168 Z" id="Shape"></path>
                    <path d="M1863,168 C2360,-304 2948,411 3423,18 C3358,243 3445,342 3713,503 C3212,723 2653,233 1862,532 L1863,168 L1863,168 Z" id="Shape"></path>
                </g>
                <path d="M2287,4420 L2300,2508 C2221,2651 2108,2757 1997,2829 L1997,4905 C2155,4819 2374,4665 2287,4420 L2287,4420 Z" id="Shape" stroke="#000000" stroke-width="27.7756" fill="#CC9933"></path>
                <path d="M5432,4420 L5414,2492 C5469,2635 5611,2757 5723,2829 L5723,4905 C5565,4819 5345,4665 5432,4420 L5432,4420 Z" id="Shape" stroke="#000000" stroke-width="27.7756" fill="#CC9933"></path>
                <path d="M2801,3434 L2897,3434 L2897,3264 L2965,3264 L2965,3434 L3061,3434 L3061,3052 C3061,2997 3007,2955 2947,2955 L2914,2955 C2855,2955 2801,2997 2801,3052 L2801,3434 L2801,3434 Z M2897,3188 L2897,3059 C2897,3033 2908,3021 2922,3021 L2940,3021 C2954,3021 2965,3037 2965,3059 L2965,3188 L2897,3188 L2897,3188 Z" id="Shape" fill="#9A3D00"></path>
                <path d="M3132,3434 L3229,3434 L3229,3052 C3229,3041 3236,3038 3245,3038 L3272,3038 C3285,3038 3296,3053 3296,3075 L3296,3434 L3391,3434 L3391,3052 C3391,3041 3398,3038 3406,3038 L3433,3038 C3447,3038 3457,3053 3457,3075 L3457,3434 L3554,3434 L3554,3061 C3554,3006 3502,2965 3442,2965 L3347,2965 L3347,2997 C3331,2975 3294,2965 3264,2965 L3132,2965 L3132,3434 L3132,3434 Z" id="1" fill="#9A3D00"></path>
                <path d="M3774,3443 C3833,3443 3887,3402 3887,3347 L3887,3052 C3887,2997 3833,2955 3774,2955 L3738,2955 C3678,2955 3623,2997 3623,3052 L3623,3347 C3623,3402 3678,3443 3738,3443 L3774,3443 L3774,3443 Z M3746,3378 C3736,3378 3719,3366 3719,3340 L3719,3059 C3719,3033 3732,3021 3746,3021 L3766,3021 C3779,3021 3792,3037 3792,3059 L3792,3340 C3792,3362 3775,3378 3766,3378 L3746,3378 L3746,3378 Z" id="2" fill="#9A3D00"></path>
                <path d="M3959,3434 L4055,3434 L4055,3238 C4067,3238 4113,3258 4122,3286 L4122,3434 L4221,3434 L4221,3276 C4205,3230 4163,3207 4145,3201 C4177,3196 4212,3163 4214,3138 L4214,3032 C4214,3014 4187,2965 4116,2965 L3959,2965 L3959,3434 L3959,3434 Z M4055,3177 L4055,3038 L4100,3038 C4116,3038 4123,3047 4123,3060 L4123,3130 C4117,3159 4078,3173 4055,3177 L4055,3177 Z" id="3" fill="#9A3D00"></path>
                <path d="M4624,3434 L4624,3355 L4523,3355 C4514,3355 4509,3351 4509,3341 L4509,3192 L4617,3192 L4617,3119 L4509,3119 L4509,3059 C4509,3050 4514,3045 4523,3045 L4624,3045 L4624,2965 L4482,2965 C4442,2965 4411,2999 4411,3034 L4411,3366 C4411,3401 4442,3434 4482,3434 L4624,3434 L4624,3434 Z" id="4" fill="#9A3D00"></path>
                <polygon id="5" fill="#9A3D00" points="4737 3434 4860 3434 4849 3383 4849 3043 4928 3043 4928 2965 4669 2965 4669 3043 4748 3043 4748 3383"></polygon>
                <polygon id="6" fill="#9A3D00" points="2548 4080 2644 4080 2644 3826 2680 3846 2716 3826 2716 4080 2812 4080 2812 3610 2716 3610 2716 3763 2644 3763 2644 3610 2548 3610"></polygon>
                <path d="M3029,4089 C3089,4089 3143,4047 3143,3992 L3143,3610 L3046,3610 L3046,3986 C3046,4012 3035,4023 3022,4023 L3006,4023 C2992,4023 2981,4007 2981,3986 L2981,3610 L2884,3610 L2884,3992 C2884,4047 2938,4089 2998,4089 L3029,4089 L3029,4089 Z" id="7" fill="#9A3D00"></path>
                <path d="M3215,4080 L3312,4080 L3312,3697 C3312,3686 3319,3683 3327,3683 L3354,3683 C3368,3683 3378,3698 3378,3720 L3378,4080 L3473,4080 L3473,3697 C3473,3686 3480,3683 3488,3683 L3515,3683 C3529,3683 3540,3698 3540,3720 L3540,4080 L3637,4080 L3637,3706 C3637,3652 3585,3610 3524,3610 L3430,3610 L3430,3643 C3414,3621 3376,3610 3346,3610 L3215,3610 L3215,4080 L3215,4080 Z" id="8" fill="#9A3D00"></path>
                <polygon id="9" fill="#9A3D00" points="3699 4080 3819 4080 3808 4029 3808 3662 3819 3610 3699 3610 3710 3662 3710 4029"></polygon>
                <path d="M4089,4080 L4089,4000 L3993,4000 C3984,4000 3980,3994 3980,3985 L3980,3610 L3881,3610 L3881,4011 C3881,4047 3911,4080 3951,4080 L4089,4080 L4089,4080 Z" id="10" fill="#9A3D00"></path>
                <polygon id="11" fill="#9A3D00" points="4138 4080 4258 4080 4247 4029 4247 3662 4258 3610 4138 3610 4149 3662 4149 4029"></polygon>
                <polygon id="12" fill="#9A3D00" points="4371 4080 4494 4080 4482 4029 4482 3688 4561 3688 4561 3610 4303 3610 4303 3688 4382 3688 4382 4029"></polygon>
                <path d="M4613,4080 L4710,4080 L4710,3909 L4778,3909 L4778,4080 L4874,4080 L4874,3697 C4874,3643 4820,3601 4760,3601 L4727,3601 C4667,3601 4613,3643 4613,3697 L4613,4080 L4613,4080 Z M4710,3833 L4710,3704 C4710,3678 4721,3666 4735,3666 L4753,3666 C4766,3666 4778,3682 4778,3704 L4778,3833 L4710,3833 L4710,3833 Z" id="13" fill="#9A3D00"></path>
                <path d="M4941,4080 L5127,4080 C5154,4080 5172,4058 5172,4037 L5172,3896 C5172,3859 5167,3843 5134,3819 L5039,3755 L5039,3704 C5039,3694 5045,3689 5055,3689 L5149,3689 L5149,3610 L5011,3610 C4968,3610 4936,3643 4936,3678 L4936,3779 C4936,3802 4961,3817 4984,3834 L5068,3890 L5068,3985 C5068,4000 5066,4000 5054,4000 L4941,4000 L4941,4080 L4941,4080 Z" id="14" fill="#9A3D00"></path>
                <polygon id="Shape" fill="#663399" points="826 5015 794 4920 753 4943 441 5050 394 5056 427 5151 468 5127 780 5021"></polygon>
                <path d="M765,4828 L743,4750 L413,4843 C399,4846 398,4841 395,4831 L390,4812 C387,4801 398,4789 416,4784 L728,4696 L706,4618 L383,4709 C335,4722 311,4774 324,4823 L358,4942 L765,4828 L765,4828 Z" id="1" fill="#663399"></path>
                <path d="M688,4521 L661,4367 C657,4346 634,4334 616,4337 L492,4360 C459,4366 445,4373 429,4404 L387,4492 L341,4500 C333,4502 327,4498 326,4489 L312,4412 L242,4425 L262,4539 C269,4574 303,4595 334,4589 L423,4573 C443,4569 453,4546 464,4525 L501,4446 L586,4431 C599,4429 599,4430 601,4441 L618,4534 L688,4521 L688,4521 Z" id="2" fill="#663399"></path>
                <polygon id="3" fill="#663399" points="640 4206 632 4104 587 4117 282 4141 277 4075 207 4080 223 4296 294 4291 288 4225 593 4201"></polygon>
                <polygon id="4" fill="#663399" points="625 3968 623 3867 578 3877 248 3884 201 3875 203 3976 249 3965 579 3959"></polygon>
                <polygon id="5" fill="#663399" points="624 3731 632 3628 585 3634 280 3609 286 3543 216 3538 198 3754 268 3759 274 3693 579 3718"></polygon>
                <path d="M666,3366 C672,3316 641,3266 591,3260 L250,3219 L241,3299 L576,3340 C599,3343 608,3354 606,3365 L605,3378 C603,3390 588,3398 570,3395 L234,3354 L224,3435 L565,3477 C614,3483 657,3442 663,3392 L666,3366 L666,3366 Z" id="6" fill="#663399"></path>
                <polygon id="7" fill="#663399" points="701 3131 724 3031 677 3030 378 2963 392 2899 324 2883 277 3095 345 3110 360 3045 659 3112"></polygon>
                <path d="M808,2780 C824,2733 803,2678 756,2662 L430,2554 L404,2631 L725,2737 C747,2745 754,2757 750,2768 L746,2780 C742,2791 726,2796 708,2790 L387,2683 L361,2760 L687,2869 C735,2884 784,2852 800,2805 L808,2780 L808,2780 Z" id="8" fill="#663399"></path>
                <path d="M868,2592 L901,2518 L586,2378 C577,2374 577,2368 580,2361 L589,2341 C594,2330 610,2328 628,2335 L923,2467 L956,2394 L641,2254 C632,2250 632,2244 635,2238 L644,2217 C649,2206 665,2204 683,2212 L978,2343 L1011,2269 L704,2132 C659,2112 608,2137 587,2183 L555,2256 L581,2268 C558,2272 537,2297 527,2320 L482,2421 L868,2592 L868,2592 Z" id="9" fill="#663399"></path>
                <polygon id="10" fill="#663399" points="1167 2024 1225 1939 1182 1921 930 1748 967 1693 909 1653 787 1832 845 1872 882 1817 1134 1991"></polygon>
                <polygon id="11" fill="#663399" points="1308 1822 1361 1760 1187 1612 1220 1601 1227 1566 1400 1714 1452 1653 1131 1379 1079 1440 1183 1529 1144 1575 1039 1486 987 1547"></polygon>
                <path d="M1645,1450 L1595,1399 L1535,1458 C1529,1463 1524,1464 1518,1457 L1424,1362 L1488,1299 L1442,1251 L1378,1314 L1340,1276 C1334,1270 1334,1264 1339,1259 L1399,1200 L1349,1149 L1264,1232 C1240,1256 1243,1295 1266,1318 L1475,1531 C1497,1553 1536,1557 1560,1533 L1645,1450 L1645,1450 Z" id="12" fill="#663399"></path>
                <path d="M1814,1308 C1851,1274 1860,1217 1827,1180 L1650,982 C1617,945 1558,948 1521,981 L1498,1001 C1461,1035 1452,1093 1485,1130 L1662,1328 C1695,1364 1754,1362 1792,1328 L1814,1308 L1814,1308 Z M1757,1279 C1751,1285 1733,1287 1718,1269 L1549,1081 C1533,1064 1534,1048 1543,1041 L1555,1030 C1564,1022 1581,1025 1594,1040 L1763,1229 C1776,1243 1775,1263 1769,1268 L1757,1279 L1757,1279 Z" id="13" fill="#663399"></path>
                <path d="M2105,1081 L2063,1023 L1998,1070 C1991,1075 1985,1073 1981,1066 L1782,793 L1715,842 L1928,1134 C1947,1160 1984,1169 2011,1149 L2105,1081 L2105,1081 Z" id="14" fill="#663399"></path>
                <path d="M2291,981 C2335,956 2355,901 2331,858 L2198,628 C2173,586 2115,576 2072,601 L2046,616 C2002,641 1981,696 2006,739 L2139,969 C2164,1012 2222,1021 2265,996 L2291,981 L2291,981 Z M2242,941 C2235,945 2217,944 2205,923 L2079,704 C2067,684 2071,669 2081,664 L2095,655 C2105,650 2121,656 2131,674 L2258,893 C2268,910 2263,929 2256,933 L2242,941 L2242,941 Z" id="15" fill="#663399"></path>
                <path d="M2661,788 L2541,530 L2449,573 L2477,634 L2497,624 L2559,757 L2515,777 C2508,781 2502,778 2499,770 L2392,540 C2388,533 2390,527 2397,523 L2490,480 L2460,416 L2342,471 C2311,485 2290,516 2311,561 L2430,819 C2444,848 2486,870 2519,854 L2661,788 L2661,788 Z" id="16" fill="#663399"></path>
                <polygon id="17" fill="#663399" points="2750 757 2844 724 2821 683 2712 372 2705 325 2610 358 2634 399 2743 710"></polygon>
                <path d="M3128,639 L3109,571 L3005,600 C2997,603 2992,600 2990,591 L2919,342 C2916,335 2919,328 2927,326 L2967,315 L2987,384 L3056,364 L3031,276 C3026,258 2999,235 2960,246 L2880,269 C2845,279 2827,323 2836,353 L2915,629 C2924,660 2965,686 2997,677 L3128,639 L3128,639 Z" id="18" fill="#663399"></path>
                <path d="M3349,606 C3398,596 3436,551 3427,502 L3362,165 L3282,180 L3346,512 C3350,535 3343,547 3332,549 L3319,551 C3307,554 3296,542 3292,523 L3228,191 L3148,206 L3213,543 C3222,592 3275,620 3324,611 L3349,606 L3349,606 Z" id="19" fill="#663399"></path>
                <path d="M3543,567 L3625,565 L3617,221 C3617,211 3623,208 3630,208 L3652,208 C3664,207 3673,221 3674,240 L3681,564 L3760,562 L3753,218 C3752,208 3758,205 3765,205 L3788,205 C3799,205 3808,218 3809,237 L3816,561 L3897,559 L3890,223 C3889,174 3844,138 3794,139 L3714,141 L3715,170 C3701,150 3670,142 3645,142 L3534,145 L3543,567 L3543,567 Z" id="20" fill="#663399"></path>
                <polygon id="21" fill="#663399" points="4137 571 4237 580 4232 533 4260 204 4274 159 4174 150 4179 197 4150 526"></polygon>
                <path d="M4453,623 C4502,633 4554,605 4563,557 L4614,296 C4623,248 4586,202 4537,192 L4507,187 C4457,177 4406,206 4396,254 L4346,514 C4336,563 4374,608 4423,618 L4453,623 L4453,623 Z M4441,561 C4433,559 4421,546 4426,524 L4474,275 C4478,252 4491,244 4502,246 L4519,249 C4530,252 4538,267 4534,287 L4485,535 C4482,555 4465,566 4457,564 L4441,561 L4441,561 Z" id="22" fill="#663399"></path>
                <path d="M4646,655 L4723,677 L4765,530 L4820,546 L4778,693 L4856,715 L4950,385 C4964,337 4930,288 4882,274 L4856,267 C4808,253 4754,277 4740,325 L4646,655 L4646,655 Z M4784,464 L4816,352 C4823,330 4834,323 4846,326 L4860,330 C4871,333 4876,349 4871,368 L4839,480 L4784,464 L4784,464 Z" id="23" fill="#663399"></path>
                <path d="M4952,749 L5027,780 L5159,464 C5164,451 5170,453 5179,457 L5197,465 C5208,469 5211,485 5203,503 L5078,802 L5153,833 L5283,524 C5302,478 5276,427 5229,407 L5115,359 L4952,749 L4952,749 Z" id="24" fill="#663399"></path>
                <path d="M5246,874 L5318,912 L5478,610 C5485,597 5490,600 5499,604 L5516,614 C5526,619 5528,636 5519,653 L5367,938 L5439,976 L5596,680 C5619,636 5598,583 5554,559 L5444,501 L5246,874 L5246,874 Z" id="25" fill="#663399"></path>
                <polygon id="26" fill="#663399" points="5521 1024 5604 1079 5622 1036 5804 761 5838 728 5754 672 5736 716 5554 991"></polygon>
                <path d="M5682,1130 L5809,1221 C5827,1233 5850,1226 5861,1211 L5935,1108 C5954,1081 5960,1066 5949,1033 L5918,941 L5945,903 C5950,896 5957,895 5964,900 L6028,945 L6069,888 L5975,820 C5945,799 5906,808 5888,834 L5835,908 C5823,924 5832,948 5839,971 L5868,1053 L5818,1123 C5810,1134 5809,1133 5800,1127 L5723,1072 L5682,1130 L5682,1130 Z" id="27" fill="#663399"></path>
                <path d="M6023,1401 L6081,1458 L6322,1213 C6329,1206 6335,1208 6340,1213 L6356,1229 C6365,1237 6361,1253 6347,1267 L6121,1497 L6177,1553 L6419,1308 C6426,1301 6432,1303 6437,1308 L6453,1324 C6461,1332 6458,1348 6444,1362 L6217,1592 L6275,1649 L6510,1410 C6545,1375 6540,1318 6504,1282 L6447,1227 L6427,1247 C6431,1224 6416,1195 6398,1178 L6319,1100 L6023,1401 L6023,1401 Z" id="28" fill="#663399"></path>
                <path d="M6336,1729 L6386,1793 L6507,1699 L6542,1744 L6421,1838 L6470,1901 L6742,1690 C6781,1660 6783,1601 6752,1561 L6735,1540 C6704,1500 6647,1488 6608,1518 L6336,1729 L6336,1729 Z M6561,1657 L6653,1585 C6671,1571 6685,1572 6692,1581 L6701,1593 C6708,1602 6703,1618 6688,1630 L6596,1702 L6561,1657 L6561,1657 Z" id="29" fill="#663399"></path>
                <path d="M6528,1986 L6571,2054 L6721,1960 C6726,1968 6731,2011 6714,2031 L6601,2102 L6645,2171 L6765,2096 C6793,2063 6792,2022 6789,2006 C6807,2027 6848,2035 6867,2025 L6948,1974 C6962,1965 6987,1924 6956,1873 L6886,1761 L6528,1986 L6528,1986 Z M6767,1931 L6873,1864 L6893,1896 C6900,1908 6896,1917 6886,1923 L6833,1956 C6808,1966 6780,1945 6767,1931 L6767,1931 Z" id="30" fill="#663399"></path>
                <polygon id="31" fill="#663399" points="6691 2253 6735 2343 6772 2314 7069 2170 7115 2158 7071 2067 7033 2096 6736 2241"></polygon>
                <path d="M6778,2427 L6811,2501 L6951,2439 L6974,2491 L6833,2553 L6866,2627 L7181,2489 C7226,2469 7242,2413 7222,2366 L7211,2341 C7191,2296 7138,2269 7093,2289 L6778,2427 L6778,2427 Z M7014,2412 L7120,2365 C7142,2356 7155,2360 7159,2371 L7166,2385 C7170,2395 7161,2409 7143,2417 L7037,2464 L7014,2412 L7014,2412 Z" id="32" fill="#663399"></path>
                <path d="M6958,2889 L7026,2866 L6999,2786 C6996,2779 6998,2774 7007,2772 L7134,2728 L7163,2813 L7225,2792 L7196,2707 L7247,2690 C7255,2686 7261,2688 7263,2696 L7290,2776 L7358,2753 L7320,2640 C7309,2608 7272,2594 7242,2604 L6959,2701 C6929,2711 6909,2745 6920,2777 L6958,2889 L6958,2889 Z" id="33" fill="#663399"></path>
                <path d="M7030,3232 C7037,3272 7072,3309 7130,3305 L7475,3275 L7460,3189 L7110,3233 C7092,3235 7090,3227 7089,3221 C7088,3216 7087,3208 7105,3204 L7448,3121 L7432,3036 L7098,3129 C7043,3145 7023,3192 7030,3232 L7030,3232 Z" id="34" fill="#663399"></path>
                <polygon id="35" fill="#663399" points="7070 3432 7082 3532 7126 3517 7454 3478 7501 3482 7489 3382 7444 3397 7116 3436"></polygon>
                <path d="M7091,3626 L7093,3707 L7246,3703 L7247,3760 L7094,3764 L7095,3844 L7439,3837 C7489,3836 7525,3790 7524,3739 L7524,3712 C7523,3662 7484,3618 7435,3619 L7091,3626 L7091,3626 Z M7314,3702 L7430,3700 C7454,3699 7464,3708 7465,3720 L7465,3735 C7465,3747 7451,3756 7432,3756 L7315,3759 L7314,3702 L7314,3702 Z" id="36" fill="#663399"></path>
                <path d="M7098,3946 L7092,4027 L7433,4054 C7448,4056 7447,4061 7446,4071 L7445,4091 C7444,4102 7429,4110 7410,4108 L7088,4083 L7081,4164 L7415,4190 C7465,4194 7505,4154 7509,4104 L7519,3980 L7098,3946 L7098,3946 Z" id="37" fill="#663399"></path>
                <path d="M7076,4266 L7062,4346 L7399,4405 C7413,4407 7412,4413 7411,4423 L7407,4442 C7405,4453 7390,4460 7371,4456 L7053,4401 L7039,4481 L7369,4538 C7418,4547 7462,4510 7471,4461 L7492,4338 L7076,4266 L7076,4266 Z" id="38" fill="#663399"></path>
                <path d="M6980,4753 L7049,4768 L7068,4686 C7069,4679 7074,4675 7082,4677 L7213,4707 L7194,4794 L7258,4809 L7278,4721 L7330,4733 C7339,4734 7342,4739 7340,4747 L7322,4829 L7392,4845 L7418,4728 C7425,4696 7401,4664 7370,4657 L7079,4592 C7048,4585 7013,4604 7006,4637 L6980,4753 L6980,4753 Z" id="39" fill="#663399"></path>
                <path d="M6927,4910 L6902,4987 L7016,5025 C7010,5062 7018,5104 7057,5116 L7279,5190 L7304,5113 L7104,5047 C7084,5040 7080,5020 7085,5005 C7089,4991 7105,4977 7125,4984 L7325,5050 L7351,4973 L7129,4899 C7090,4887 7059,4914 7041,4948 L6927,4910 L6927,4910 Z" id="40" fill="#663399"></path>
                <polygon id="41" stroke="#663399" stroke-width="10.4173" points="826 5015 794 4920 753 4943 441 5050 394 5056 427 5151 468 5127 780 5021"></polygon>
                <path d="M765,4828 L743,4750 L413,4843 C399,4846 398,4841 395,4831 L390,4812 C387,4801 398,4789 416,4784 L728,4696 L706,4618 L383,4709 C335,4722 311,4774 324,4823 L358,4942 L765,4828 L765,4828 Z" id="42" stroke="#663399" stroke-width="10.4173"></path>
                <path d="M688,4521 L661,4367 C657,4346 634,4334 616,4337 L492,4360 C459,4366 445,4373 429,4404 L387,4492 L341,4500 C333,4502 327,4498 326,4489 L312,4412 L242,4425 L262,4539 C269,4574 303,4595 334,4589 L423,4573 C443,4569 453,4546 464,4525 L501,4446 L586,4431 C599,4429 599,4430 601,4441 L618,4534 L688,4521 L688,4521 Z" id="43" stroke="#663399" stroke-width="10.4173"></path>
                <polygon id="44" stroke="#663399" stroke-width="10.4173" points="640 4206 632 4104 587 4117 282 4141 277 4075 207 4080 223 4296 294 4291 288 4225 593 4201"></polygon>
                <polygon id="45" stroke="#663399" stroke-width="10.4173" points="625 3968 623 3867 578 3877 248 3884 201 3875 203 3976 249 3965 579 3959"></polygon>
                <polygon id="46" stroke="#663399" stroke-width="10.4173" points="624 3731 632 3628 585 3634 280 3609 286 3543 216 3538 198 3754 268 3759 274 3693 579 3718"></polygon>
                <path d="M666,3366 C672,3316 641,3266 591,3260 L250,3219 L241,3299 L576,3340 C599,3343 608,3354 606,3365 L605,3378 C603,3390 588,3398 570,3395 L234,3354 L224,3435 L565,3477 C614,3483 657,3442 663,3392 L666,3366 L666,3366 Z" id="47" stroke="#663399" stroke-width="10.4173"></path>
                <polygon id="48" stroke="#663399" stroke-width="10.4173" points="701 3131 724 3031 677 3030 378 2963 392 2899 324 2883 277 3095 345 3110 360 3045 659 3112"></polygon>
                <path d="M808,2780 C824,2733 803,2678 756,2662 L430,2554 L404,2631 L725,2737 C747,2745 754,2757 750,2768 L746,2780 C742,2791 726,2796 708,2790 L387,2683 L361,2760 L687,2869 C735,2884 784,2852 800,2805 L808,2780 L808,2780 Z" id="49" stroke="#663399" stroke-width="10.4173"></path>
                <path d="M868,2592 L901,2518 L586,2378 C577,2374 577,2368 580,2361 L589,2341 C594,2330 610,2328 628,2335 L923,2467 L956,2394 L641,2254 C632,2250 632,2244 635,2238 L644,2217 C649,2206 665,2204 683,2212 L978,2343 L1011,2269 L704,2132 C659,2112 608,2137 587,2183 L555,2256 L581,2268 C558,2272 537,2297 527,2320 L482,2421 L868,2592 L868,2592 Z" id="50" stroke="#663399" stroke-width="10.4173"></path>
                <polygon id="51" stroke="#663399" stroke-width="10.4173" points="1167 2024 1225 1939 1182 1921 930 1748 967 1693 909 1653 787 1832 845 1872 882 1817 1134 1991"></polygon>
                <polygon id="52" stroke="#663399" stroke-width="10.4173" points="1308 1822 1361 1760 1187 1612 1220 1601 1227 1566 1400 1714 1452 1653 1131 1379 1079 1440 1183 1529 1144 1575 1039 1486 987 1547"></polygon>
                <path d="M1645,1450 L1595,1399 L1535,1458 C1529,1463 1524,1464 1518,1457 L1424,1362 L1488,1299 L1442,1251 L1378,1314 L1340,1276 C1334,1270 1334,1264 1339,1259 L1399,1200 L1349,1149 L1264,1232 C1240,1256 1243,1295 1266,1318 L1475,1531 C1497,1553 1536,1557 1560,1533 L1645,1450 L1645,1450 Z" id="53" stroke="#663399" stroke-width="10.4173"></path>
                <path d="M1814,1308 C1851,1274 1860,1217 1827,1180 L1650,982 C1617,945 1558,948 1521,981 L1498,1001 C1461,1035 1452,1093 1485,1130 L1662,1328 C1695,1364 1754,1362 1792,1328 L1814,1308 L1814,1308 Z M1757,1279 C1751,1285 1733,1287 1718,1269 L1549,1081 C1533,1064 1534,1048 1543,1041 L1555,1030 C1564,1022 1581,1025 1594,1040 L1763,1229 C1776,1243 1775,1263 1769,1268 L1757,1279 L1757,1279 Z" id="54" stroke="#663399" stroke-width="10.4173"></path>
                <path d="M2105,1081 L2063,1023 L1998,1070 C1991,1075 1985,1073 1981,1066 L1782,793 L1715,842 L1928,1134 C1947,1160 1984,1169 2011,1149 L2105,1081 L2105,1081 Z" id="55" stroke="#663399" stroke-width="10.4173"></path>
                <path d="M2291,981 C2335,956 2355,901 2331,858 L2198,628 C2173,586 2115,576 2072,601 L2046,616 C2002,641 1981,696 2006,739 L2139,969 C2164,1012 2222,1021 2265,996 L2291,981 L2291,981 Z M2242,941 C2235,945 2217,944 2205,923 L2079,704 C2067,684 2071,669 2081,664 L2095,655 C2105,650 2121,656 2131,674 L2258,893 C2268,910 2263,929 2256,933 L2242,941 L2242,941 Z" id="56" stroke="#663399" stroke-width="10.4173"></path>
                <path d="M2661,788 L2541,530 L2449,573 L2477,634 L2497,624 L2559,757 L2515,777 C2508,781 2502,778 2499,770 L2392,540 C2388,533 2390,527 2397,523 L2490,480 L2460,416 L2342,471 C2311,485 2290,516 2311,561 L2430,819 C2444,848 2486,870 2519,854 L2661,788 L2661,788 Z" id="57" stroke="#663399" stroke-width="10.4173"></path>
                <polygon id="58" stroke="#663399" stroke-width="10.4173" points="2750 757 2844 724 2821 683 2712 372 2705 325 2610 358 2634 399 2743 710"></polygon>
                <path d="M3128,639 L3109,571 L3005,600 C2997,603 2992,600 2990,591 L2919,342 C2916,335 2919,328 2927,326 L2967,315 L2987,384 L3056,364 L3031,276 C3026,258 2999,235 2960,246 L2880,269 C2845,279 2827,323 2836,353 L2915,629 C2924,660 2965,686 2997,677 L3128,639 L3128,639 Z" id="59" stroke="#663399" stroke-width="10.4173"></path>
                <path d="M3349,606 C3398,596 3436,551 3427,502 L3362,165 L3282,180 L3346,512 C3350,535 3343,547 3332,549 L3319,551 C3307,554 3296,542 3292,523 L3228,191 L3148,206 L3213,543 C3222,592 3275,620 3324,611 L3349,606 L3349,606 Z" id="60" stroke="#663399" stroke-width="10.4173"></path>
                <path d="M3543,567 L3625,565 L3617,221 C3617,211 3623,208 3630,208 L3652,208 C3664,207 3673,221 3674,240 L3681,564 L3760,562 L3753,218 C3752,208 3758,205 3765,205 L3788,205 C3799,205 3808,218 3809,237 L3816,561 L3897,559 L3890,223 C3889,174 3844,138 3794,139 L3714,141 L3715,170 C3701,150 3670,142 3645,142 L3534,145 L3543,567 L3543,567 Z" id="61" stroke="#663399" stroke-width="10.4173"></path>
                <polygon id="62" stroke="#663399" stroke-width="10.4173" points="4137 571 4237 580 4232 533 4260 204 4274 159 4174 150 4179 197 4150 526"></polygon>
                <path d="M4453,623 C4502,633 4554,605 4563,557 L4614,296 C4623,248 4586,202 4537,192 L4507,187 C4457,177 4406,206 4396,254 L4346,514 C4336,563 4374,608 4423,618 L4453,623 L4453,623 Z M4441,561 C4433,559 4421,546 4426,524 L4474,275 C4478,252 4491,244 4502,246 L4519,249 C4530,252 4538,267 4534,287 L4485,535 C4482,555 4465,566 4457,564 L4441,561 L4441,561 Z" id="63" stroke="#663399" stroke-width="10.4173"></path>
                <path d="M4646,655 L4723,677 L4765,530 L4820,546 L4778,693 L4856,715 L4950,385 C4964,337 4930,288 4882,274 L4856,267 C4808,253 4754,277 4740,325 L4646,655 L4646,655 Z M4784,464 L4816,352 C4823,330 4834,323 4846,326 L4860,330 C4871,333 4876,349 4871,368 L4839,480 L4784,464 L4784,464 Z" id="64" stroke="#663399" stroke-width="10.4173"></path>
                <path d="M4952,749 L5027,780 L5159,464 C5164,451 5170,453 5179,457 L5197,465 C5208,469 5211,485 5203,503 L5078,802 L5153,833 L5283,524 C5302,478 5276,427 5229,407 L5115,359 L4952,749 L4952,749 Z" id="65" stroke="#663399" stroke-width="10.4173"></path>
                <path d="M5246,874 L5318,912 L5478,610 C5485,597 5490,600 5499,604 L5516,614 C5526,619 5528,636 5519,653 L5367,938 L5439,976 L5596,680 C5619,636 5598,583 5554,559 L5444,501 L5246,874 L5246,874 Z" id="66" stroke="#663399" stroke-width="10.4173"></path>
                <polygon id="67" stroke="#663399" stroke-width="10.4173" points="5521 1024 5604 1079 5622 1036 5804 761 5838 728 5754 672 5736 716 5554 991"></polygon>
                <path d="M5682,1130 L5809,1221 C5827,1233 5850,1226 5861,1211 L5935,1108 C5954,1081 5960,1066 5949,1033 L5918,941 L5945,903 C5950,896 5957,895 5964,900 L6028,945 L6069,888 L5975,820 C5945,799 5906,808 5888,834 L5835,908 C5823,924 5832,948 5839,971 L5868,1053 L5818,1123 C5810,1134 5809,1133 5800,1127 L5723,1072 L5682,1130 L5682,1130 Z" id="68" stroke="#663399" stroke-width="10.4173"></path>
                <path d="M6023,1401 L6081,1458 L6322,1213 C6329,1206 6335,1208 6340,1213 L6356,1229 C6365,1237 6361,1253 6347,1267 L6121,1497 L6177,1553 L6419,1308 C6426,1301 6432,1303 6437,1308 L6453,1324 C6461,1332 6458,1348 6444,1362 L6217,1592 L6275,1649 L6510,1410 C6545,1375 6540,1318 6504,1282 L6447,1227 L6427,1247 C6431,1224 6416,1195 6398,1178 L6319,1100 L6023,1401 L6023,1401 Z" id="69" stroke="#663399" stroke-width="10.4173"></path>
                <path d="M6336,1729 L6386,1793 L6507,1699 L6542,1744 L6421,1838 L6470,1901 L6742,1690 C6781,1660 6783,1601 6752,1561 L6735,1540 C6704,1500 6647,1488 6608,1518 L6336,1729 L6336,1729 Z M6561,1657 L6653,1585 C6671,1571 6685,1572 6692,1581 L6701,1593 C6708,1602 6703,1618 6688,1630 L6596,1702 L6561,1657 L6561,1657 Z" id="70" stroke="#663399" stroke-width="10.4173"></path>
                <path d="M6528,1986 L6571,2054 L6721,1960 C6726,1968 6731,2011 6714,2031 L6601,2102 L6645,2171 L6765,2096 C6793,2063 6792,2022 6789,2006 C6807,2027 6848,2035 6867,2025 L6948,1974 C6962,1965 6987,1924 6956,1873 L6886,1761 L6528,1986 L6528,1986 Z M6767,1931 L6873,1864 L6893,1896 C6900,1908 6896,1917 6886,1923 L6833,1956 C6808,1966 6780,1945 6767,1931 L6767,1931 Z" id="71" stroke="#663399" stroke-width="10.4173"></path>
                <polygon id="72" stroke="#663399" stroke-width="10.4173" points="6691 2253 6735 2343 6772 2314 7069 2170 7115 2158 7071 2067 7033 2096 6736 2241"></polygon>
                <path d="M6778,2427 L6811,2501 L6951,2439 L6974,2491 L6833,2553 L6866,2627 L7181,2489 C7226,2469 7242,2413 7222,2366 L7211,2341 C7191,2296 7138,2269 7093,2289 L6778,2427 L6778,2427 Z M7014,2412 L7120,2365 C7142,2356 7155,2360 7159,2371 L7166,2385 C7170,2395 7161,2409 7143,2417 L7037,2464 L7014,2412 L7014,2412 Z" id="73" stroke="#663399" stroke-width="10.4173"></path>
                <path d="M6958,2889 L7026,2866 L6999,2786 C6996,2779 6998,2774 7007,2772 L7134,2728 L7163,2813 L7225,2792 L7196,2707 L7247,2690 C7255,2686 7261,2688 7263,2696 L7290,2776 L7358,2753 L7320,2640 C7309,2608 7272,2594 7242,2604 L6959,2701 C6929,2711 6909,2745 6920,2777 L6958,2889 L6958,2889 Z" id="74" stroke="#663399" stroke-width="10.4173"></path>
                <path d="M7030,3232 C7037,3272 7072,3309 7130,3305 L7475,3275 L7460,3189 L7110,3233 C7092,3235 7090,3227 7089,3221 C7088,3216 7087,3208 7105,3204 L7448,3121 L7432,3036 L7098,3129 C7043,3145 7023,3192 7030,3232 L7030,3232 Z" id="75" stroke="#663399" stroke-width="10.4173"></path>
                <polygon id="76" stroke="#663399" stroke-width="10.4173" points="7070 3432 7082 3532 7126 3517 7454 3478 7501 3482 7489 3382 7444 3397 7116 3436"></polygon>
                <path d="M7091,3626 L7093,3707 L7246,3703 L7247,3760 L7094,3764 L7095,3844 L7439,3837 C7489,3836 7525,3790 7524,3739 L7524,3712 C7523,3662 7484,3618 7435,3619 L7091,3626 L7091,3626 Z M7314,3702 L7430,3700 C7454,3699 7464,3708 7465,3720 L7465,3735 C7465,3747 7451,3756 7432,3756 L7315,3759 L7314,3702 L7314,3702 Z" id="77" stroke="#663399" stroke-width="10.4173"></path>
                <path d="M7098,3946 L7092,4027 L7433,4054 C7448,4056 7447,4061 7446,4071 L7445,4091 C7444,4102 7429,4110 7410,4108 L7088,4083 L7081,4164 L7415,4190 C7465,4194 7505,4154 7509,4104 L7519,3980 L7098,3946 L7098,3946 Z" id="78" stroke="#663399" stroke-width="10.4173"></path>
                <path d="M7076,4266 L7062,4346 L7399,4405 C7413,4407 7412,4413 7411,4423 L7407,4442 C7405,4453 7390,4460 7371,4456 L7053,4401 L7039,4481 L7369,4538 C7418,4547 7462,4510 7471,4461 L7492,4338 L7076,4266 L7076,4266 Z" id="79" stroke="#663399" stroke-width="10.4173"></path>
                <path d="M6980,4753 L7049,4768 L7068,4686 C7069,4679 7074,4675 7082,4677 L7213,4707 L7194,4794 L7258,4809 L7278,4721 L7330,4733 C7339,4734 7342,4739 7340,4747 L7322,4829 L7392,4845 L7418,4728 C7425,4696 7401,4664 7370,4657 L7079,4592 C7048,4585 7013,4604 7006,4637 L6980,4753 L6980,4753 Z" id="80" stroke="#663399" stroke-width="10.4173"></path>
                <path d="M6927,4910 L6902,4987 L7016,5025 C7010,5062 7018,5104 7057,5116 L7279,5190 L7304,5113 L7104,5047 C7084,5040 7080,5020 7085,5005 C7089,4991 7105,4977 7125,4984 L7325,5050 L7351,4973 L7129,4899 C7090,4887 7059,4914 7041,4948 L6927,4910 L6927,4910 Z" id="81" stroke="#663399" stroke-width="10.4173"></path>
                <path d="M1810,6931 L1938,7015 C1956,7027 1979,7019 1989,7004 L2058,6901 C2076,6873 2080,6859 2069,6826 L2035,6737 L2061,6699 C2065,6692 2072,6691 2079,6695 L2143,6738 L2181,6680 L2087,6617 C2057,6598 2019,6608 2002,6633 L1953,6708 C1942,6725 1952,6747 1959,6769 L1990,6849 L1944,6919 C1936,6930 1935,6929 1926,6924 L1849,6873 L1810,6931 L1810,6931 Z M2231,7191 C2274,7214 2331,7202 2353,7158 L2506,6858 L2435,6822 L2284,7117 C2274,7137 2262,7142 2251,7137 L2240,7131 C2230,7126 2228,7109 2236,7093 L2387,6797 L2316,6761 L2163,7061 C2141,7104 2164,7157 2208,7180 L2231,7191 L2231,7191 Z M2494,7302 L2567,7333 L2635,7174 C2644,7177 2672,7209 2669,7234 L2618,7355 L2692,7387 L2747,7258 C2751,7216 2727,7184 2716,7173 C2742,7179 2779,7163 2789,7144 L2826,7058 C2832,7043 2829,6995 2775,6972 L2656,6921 L2494,7302 L2494,7302 Z M2656,7124 L2704,7012 L2738,7026 C2750,7031 2752,7041 2748,7051 L2724,7108 C2709,7129 2675,7128 2656,7124 L2656,7124 Z M2874,7436 L2951,7455 L2986,7308 L3040,7321 L3005,7468 L3082,7486 L3160,7158 C3171,7111 3137,7065 3088,7053 L3062,7047 C3015,7036 2963,7061 2952,7108 L2874,7436 L2874,7436 Z M3001,7243 L3027,7132 C3033,7110 3044,7102 3055,7105 L3069,7108 C3081,7111 3086,7126 3082,7145 L3055,7256 L3001,7243 L3001,7243 Z M3270,7526 L3406,7542 C3464,7549 3494,7509 3496,7493 L3508,7395 C3512,7372 3492,7336 3463,7329 C3485,7325 3505,7298 3511,7277 L3520,7199 C3522,7183 3508,7137 3450,7130 L3320,7115 L3270,7526 L3270,7526 Z M3355,7477 L3371,7346 C3385,7346 3397,7343 3406,7340 C3417,7338 3431,7358 3428,7379 L3418,7465 C3416,7476 3411,7484 3397,7482 L3355,7477 L3355,7477 Z M3377,7294 L3390,7188 L3427,7192 C3440,7194 3445,7203 3443,7214 L3438,7260 C3428,7283 3396,7293 3377,7294 L3377,7294 Z M3673,7566 L3752,7569 L3757,7418 L3813,7420 L3808,7571 L3887,7573 L3899,7236 C3900,7188 3857,7149 3808,7148 L3781,7147 C3732,7145 3686,7181 3685,7229 L3673,7566 L3673,7566 Z M3760,7351 L3764,7237 C3764,7215 3774,7205 3785,7205 L3800,7206 C3811,7206 3820,7220 3819,7239 L3815,7353 L3760,7351 L3760,7351 Z M4147,7558 L4225,7552 L4216,7435 C4253,7426 4287,7402 4284,7363 L4266,7134 L4187,7140 L4203,7346 C4204,7367 4188,7379 4173,7380 C4158,7381 4140,7372 4138,7351 L4122,7145 L4042,7151 L4060,7380 C4063,7420 4099,7438 4137,7441 L4147,7558 L4147,7558 Z M4483,7517 L4561,7502 L4533,7355 L4588,7344 L4616,7492 L4693,7477 L4630,7146 C4621,7098 4571,7070 4522,7080 L4496,7085 C4448,7094 4411,7138 4420,7186 L4483,7517 L4483,7517 Z M4520,7289 L4499,7177 C4495,7154 4502,7143 4513,7140 L4527,7138 C4539,7136 4550,7147 4554,7166 L4575,7278 L4520,7289 L4520,7289 Z M4880,7429 L4955,7403 L4843,7086 C4839,7073 4844,7071 4853,7068 L4872,7061 C4882,7058 4895,7068 4901,7085 L5006,7384 L5082,7358 L4972,7048 C4956,7002 4904,6982 4857,6998 L4742,7039 L4880,7429 L4880,7429 Z M5371,7247 C5416,7226 5441,7174 5420,7130 L5275,6826 L5203,6860 L5345,7159 C5355,7180 5351,7193 5341,7197 L5329,7203 C5319,7208 5305,7200 5296,7183 L5154,6883 L5082,6917 L5227,7221 C5248,7266 5304,7279 5348,7258 L5371,7247 L5371,7247 Z M5628,7119 L5694,7075 L5508,6793 C5502,6785 5506,6780 5512,6776 L5530,6764 C5540,6758 5554,6764 5565,6780 L5740,7045 L5805,7002 L5618,6720 C5613,6712 5617,6707 5622,6703 L5641,6691 C5650,6684 5665,6691 5675,6707 L5850,6971 L5917,6927 L5735,6653 C5709,6613 5653,6606 5612,6633 L5546,6676 L5562,6700 C5541,6691 5510,6700 5489,6714 L5399,6773 L5628,7119 L5628,7119 Z" id="Shape" fill="#663333"></path>
                <path d="M1810,6931 L1938,7015 C1956,7027 1979,7019 1989,7004 L2058,6901 C2076,6873 2080,6859 2069,6826 L2035,6737 L2061,6699 C2065,6692 2072,6691 2079,6695 L2143,6738 L2181,6680 L2087,6617 C2057,6598 2019,6608 2002,6633 L1953,6708 C1942,6725 1952,6747 1959,6769 L1990,6849 L1944,6919 C1936,6930 1935,6929 1926,6924 L1849,6873 L1810,6931 L1810,6931 Z M2231,7191 C2274,7214 2331,7202 2353,7158 L2506,6858 L2435,6822 L2284,7117 C2274,7137 2262,7142 2251,7137 L2240,7131 C2230,7126 2228,7109 2236,7093 L2387,6797 L2316,6761 L2163,7061 C2141,7104 2164,7157 2208,7180 L2231,7191 L2231,7191 Z M2494,7302 L2567,7333 L2635,7174 C2644,7177 2672,7209 2669,7234 L2618,7355 L2692,7387 L2747,7258 C2751,7216 2727,7184 2716,7173 C2742,7179 2779,7163 2789,7144 L2826,7058 C2832,7043 2829,6995 2775,6972 L2656,6921 L2494,7302 L2494,7302 Z M2656,7124 L2704,7012 L2738,7026 C2750,7031 2752,7041 2748,7051 L2724,7108 C2709,7129 2675,7128 2656,7124 L2656,7124 Z M2874,7436 L2951,7455 L2986,7308 L3040,7321 L3005,7468 L3082,7486 L3160,7158 C3171,7111 3137,7065 3088,7053 L3062,7047 C3015,7036 2963,7061 2952,7108 L2874,7436 L2874,7436 Z M3001,7243 L3027,7132 C3033,7110 3044,7102 3055,7105 L3069,7108 C3081,7111 3086,7126 3082,7145 L3055,7256 L3001,7243 L3001,7243 Z M3270,7526 L3406,7542 C3464,7549 3494,7509 3496,7493 L3508,7395 C3512,7372 3492,7336 3463,7329 C3485,7325 3505,7298 3511,7277 L3520,7199 C3522,7183 3508,7137 3450,7130 L3320,7115 L3270,7526 L3270,7526 Z M3355,7477 L3371,7346 C3385,7346 3397,7343 3406,7340 C3417,7338 3431,7358 3428,7379 L3418,7465 C3416,7476 3411,7484 3397,7482 L3355,7477 L3355,7477 Z M3377,7294 L3390,7188 L3427,7192 C3440,7194 3445,7203 3443,7214 L3438,7260 C3428,7283 3396,7293 3377,7294 L3377,7294 Z M3673,7566 L3752,7569 L3757,7418 L3813,7420 L3808,7571 L3887,7573 L3899,7236 C3900,7188 3857,7149 3808,7148 L3781,7147 C3732,7145 3686,7181 3685,7229 L3673,7566 L3673,7566 Z M3760,7351 L3764,7237 C3764,7215 3774,7205 3785,7205 L3800,7206 C3811,7206 3820,7220 3819,7239 L3815,7353 L3760,7351 L3760,7351 Z M4147,7558 L4225,7552 L4216,7435 C4253,7426 4287,7402 4284,7363 L4266,7134 L4187,7140 L4203,7346 C4204,7367 4188,7379 4173,7380 C4158,7381 4140,7372 4138,7351 L4122,7145 L4042,7151 L4060,7380 C4063,7420 4099,7438 4137,7441 L4147,7558 L4147,7558 Z M4483,7517 L4561,7502 L4533,7355 L4588,7344 L4616,7492 L4693,7477 L4630,7146 C4621,7098 4571,7070 4522,7080 L4496,7085 C4448,7094 4411,7138 4420,7186 L4483,7517 L4483,7517 Z M4520,7289 L4499,7177 C4495,7154 4502,7143 4513,7140 L4527,7138 C4539,7136 4550,7147 4554,7166 L4575,7278 L4520,7289 L4520,7289 Z M4880,7429 L4955,7403 L4843,7086 C4839,7073 4844,7071 4853,7068 L4872,7061 C4882,7058 4895,7068 4901,7085 L5006,7384 L5082,7358 L4972,7048 C4956,7002 4904,6982 4857,6998 L4742,7039 L4880,7429 L4880,7429 Z M5371,7247 C5416,7226 5441,7174 5420,7130 L5275,6826 L5203,6860 L5345,7159 C5355,7180 5351,7193 5341,7197 L5329,7203 C5319,7208 5305,7200 5296,7183 L5154,6883 L5082,6917 L5227,7221 C5248,7266 5304,7279 5348,7258 L5371,7247 L5371,7247 Z M5628,7119 L5694,7075 L5508,6793 C5502,6785 5506,6780 5512,6776 L5530,6764 C5540,6758 5554,6764 5565,6780 L5740,7045 L5805,7002 L5618,6720 C5613,6712 5617,6707 5622,6703 L5641,6691 C5650,6684 5665,6691 5675,6707 L5850,6971 L5917,6927 L5735,6653 C5709,6613 5653,6606 5612,6633 L5546,6676 L5562,6700 C5541,6691 5510,6700 5489,6714 L5399,6773 L5628,7119 L5628,7119 Z" id="1" stroke="#663333" stroke-width="13.8898"></path>
                <rect id="Rectangle-path" stroke="#663333" stroke-width="6.94488" fill="#663333" x="3656" y="752" width="408" height="770"></rect>
                <path d="M954,6191 L1655,6592" id="Shape" stroke="#FFFFFF" stroke-width="41.6654"></path>
                <path d="M6767,6191 L6065,6592" id="Shape" stroke="#FFFFFF" stroke-width="41.6654"></path>
                <path d="M1123,6513 L1123,6514 C1123,6514 1123,6514 1123,6515 C1123,6515 1122,6516 1122,6517 C1121,6519 1122,6519 1121,6520 C1121,6522 1121,6522 1120,6523 C1120,6524 1119,6525 1119,6527 L1117,6533 C1117,6534 1116,6535 1116,6536 C1115,6537 1115,6538 1115,6539 C1114,6540 1114,6541 1113,6543 C1113,6544 1113,6544 1112,6546 L1109,6552 C1107,6557 1108,6554 1106,6559 L1102,6565 C1101,6566 1103,6564 1102,6565 L1102,6565 C1101,6566 1097,6563 1097,6563 C1093,6561 1095,6562 1092,6560 C1090,6558 1086,6556 1083,6554 C1082,6552 1081,6552 1079,6550 C1077,6549 1077,6548 1075,6547 L1073,6545 C1072,6545 1073,6545 1072,6544 C1071,6543 1070,6543 1070,6542 C1069,6542 1069,6542 1069,6541 L1068,6540 C1067,6540 1065,6538 1064,6537 L1063,6536 C1062,6535 1063,6536 1062,6535 L1058,6531 C1058,6530 1057,6530 1056,6529 C1056,6528 1056,6528 1054,6527 C1053,6526 1054,6527 1052,6525 L1052,6525 C1051,6523 1051,6523 1049,6522 C1048,6521 1049,6521 1048,6520 L1046,6518 L1040,6511 L1037,6508 C1036,6507 1036,6507 1036,6506 C1035,6505 1035,6506 1034,6504 L1034,6504 C1034,6503 1033,6503 1033,6503 C1032,6502 1033,6502 1032,6502 L1032,6501 L1025,6491 C1025,6490 1025,6490 1024,6490 L1024,6489 L1021,6484 C1020,6483 1021,6484 1020,6482 C1019,6480 1019,6481 1019,6480 C1015,6486 974,6556 974,6557 L974,6557 L975,6557 L981,6557 L987,6558 L992,6558 C993,6559 992,6558 993,6558 L1009,6561 C1010,6561 1011,6561 1012,6562 C1013,6563 1014,6563 1014,6563 L1016,6563 C1017,6563 1020,6564 1020,6564 L1021,6564 L1022,6564 C1022,6564 1022,6564 1024,6565 C1025,6565 1026,6565 1026,6566 L1029,6566 C1029,6566 1030,6567 1031,6567 L1033,6567 C1033,6567 1034,6568 1035,6568 L1037,6568 C1038,6569 1038,6569 1039,6569 C1040,6569 1040,6569 1041,6570 L1043,6570 C1044,6571 1044,6571 1045,6571 L1053,6574 C1056,6574 1058,6577 1062,6577 C1064,6578 1068,6581 1070,6581 C1073,6582 1086,6589 1088,6591 C1087,6593 1081,6603 1080,6604 L1078,6606 C1077,6607 1076,6609 1075,6611 C1074,6611 1074,6611 1074,6612 L1071,6615 C1068,6618 1069,6619 1066,6621 C1065,6622 1061,6627 1059,6628 C1059,6629 1058,6630 1057,6631 L1054,6634 C1054,6635 1054,6634 1051,6637 C1051,6638 1051,6637 1049,6639 C1048,6641 1048,6639 1046,6642 C1045,6643 1045,6642 1045,6643 L1043,6645 C1042,6645 1043,6645 1042,6646 C1041,6646 1041,6647 1040,6647 C1040,6647 1040,6647 1039,6648 C1038,6649 1038,6649 1036,6650 C1036,6651 1036,6651 1035,6651 C1034,6652 1034,6652 1034,6653 C1033,6653 1033,6653 1032,6654 C1030,6656 1030,6655 1028,6657 L1027,6658 L1019,6663 C1018,6665 1013,6668 1011,6669 C1010,6669 1010,6669 1009,6670 L1003,6673 C1002,6674 1003,6673 1002,6675 L1079,6720 C1080,6718 1079,6715 1079,6714 L1079,6710 C1079,6709 1080,6709 1080,6709 C1080,6708 1079,6708 1079,6708 C1079,6706 1081,6696 1081,6694 C1080,6693 1080,6694 1081,6692 L1081,6690 C1081,6690 1081,6690 1081,6689 C1081,6688 1081,6689 1081,6688 L1081,6686 C1082,6686 1081,6686 1081,6685 C1082,6685 1082,6684 1082,6684 L1082,6682 L1084,6673 L1084,6671 C1084,6669 1085,6669 1085,6667 L1087,6662 C1088,6660 1086,6661 1088,6658 L1088,6656 C1088,6655 1089,6654 1089,6653 C1089,6652 1089,6652 1090,6651 C1091,6648 1090,6649 1090,6648 C1091,6647 1091,6646 1092,6645 L1092,6642 C1093,6641 1093,6640 1094,6639 C1094,6636 1095,6635 1096,6634 C1096,6630 1097,6631 1098,6628 L1103,6616 C1111,6601 1109,6603 1114,6607 C1117,6608 1122,6611 1123,6613 C1125,6614 1126,6615 1128,6616 C1130,6617 1130,6618 1131,6619 C1133,6620 1135,6621 1136,6622 C1136,6623 1136,6623 1137,6624 C1142,6627 1139,6625 1141,6627 C1143,6628 1142,6627 1145,6630 C1145,6631 1146,6631 1146,6631 C1148,6633 1146,6632 1150,6635 L1151,6636 C1152,6637 1153,6637 1153,6638 C1154,6639 1153,6639 1155,6640 C1158,6643 1155,6641 1158,6643 C1159,6644 1159,6644 1159,6645 C1160,6645 1161,6646 1161,6646 C1162,6647 1161,6647 1163,6648 C1164,6649 1163,6649 1164,6650 C1165,6651 1165,6651 1166,6651 C1167,6652 1166,6652 1167,6653 C1168,6654 1168,6654 1168,6655 L1169,6656 L1169,6656 C1169,6657 1169,6656 1169,6657 C1171,6657 1171,6659 1172,6660 L1173,6661 L1175,6663 C1176,6664 1175,6663 1176,6664 C1177,6666 1176,6665 1178,6667 C1179,6668 1179,6668 1179,6669 L1184,6675 C1184,6676 1184,6676 1185,6677 L1187,6680 C1187,6680 1187,6680 1188,6681 C1188,6683 1188,6682 1189,6683 C1189,6684 1189,6684 1191,6685 L1191,6686 C1191,6687 1192,6689 1193,6690 C1197,6684 1200,6677 1204,6671 L1227,6632 C1230,6627 1235,6618 1238,6613 L1236,6613 L1229,6612 C1228,6612 1228,6613 1226,6612 L1224,6612 L1223,6612 C1222,6612 1222,6612 1222,6611 L1221,6611 L1219,6611 L1217,6611 L1214,6610 C1213,6610 1213,6611 1212,6610 L1210,6610 L1207,6609 L1204,6609 C1204,6609 1204,6609 1203,6609 C1200,6607 1203,6609 1199,6608 C1197,6607 1199,6608 1197,6607 L1188,6605 C1187,6605 1188,6605 1187,6605 C1186,6605 1183,6604 1183,6604 L1179,6603 C1179,6603 1178,6603 1178,6602 L1176,6602 L1164,6598 C1162,6597 1162,6597 1160,6597 C1156,6595 1157,6596 1152,6593 C1151,6593 1150,6592 1148,6592 C1146,6591 1143,6589 1140,6588 C1137,6587 1135,6586 1132,6584 C1131,6583 1124,6580 1124,6579 L1126,6574 C1129,6569 1129,6570 1132,6566 C1133,6565 1134,6563 1135,6562 L1141,6554 C1143,6552 1144,6551 1145,6549 C1146,6549 1145,6549 1146,6548 L1146,6548 L1147,6548 C1147,6546 1148,6546 1149,6545 C1150,6544 1150,6544 1152,6541 C1153,6541 1154,6540 1154,6539 C1155,6538 1155,6539 1156,6537 C1157,6537 1157,6536 1158,6535 C1159,6534 1159,6535 1160,6533 C1161,6531 1160,6533 1162,6532 C1162,6531 1163,6530 1164,6529 C1165,6529 1164,6530 1165,6529 C1166,6528 1165,6528 1167,6527 L1169,6525 L1169,6525 C1170,6524 1171,6523 1171,6522 L1172,6522 L1173,6521 C1174,6520 1174,6521 1175,6519 C1176,6518 1176,6519 1177,6518 C1178,6518 1178,6517 1178,6517 C1179,6516 1179,6517 1179,6516 C1180,6516 1180,6516 1180,6515 C1181,6514 1180,6515 1181,6515 L1183,6513 C1184,6513 1183,6513 1184,6512 C1185,6511 1185,6512 1186,6511 C1187,6510 1191,6507 1193,6506 L1202,6500 L1203,6499 L1204,6499 C1205,6498 1203,6499 1206,6498 L1209,6496 C1209,6496 1208,6497 1209,6496 C1209,6496 1209,6496 1209,6495 L1133,6450 C1132,6452 1132,6453 1132,6454 L1132,6465 L1132,6465 L1132,6465 L1132,6465 L1132,6468 C1131,6469 1131,6468 1132,6470 C1132,6471 1131,6474 1131,6476 C1131,6477 1131,6476 1131,6477 L1129,6489 C1128,6490 1129,6490 1128,6491 L1126,6501 C1126,6504 1126,6503 1125,6505 L1125,6507 C1125,6508 1125,6509 1124,6509 C1124,6511 1125,6511 1123,6513 L1123,6513 Z" id="Shape" fill="#FFFFFF"></path>
                <path d="M6597,6513 L6598,6514 C6598,6514 6598,6514 6598,6515 C6597,6515 6598,6516 6598,6517 C6599,6519 6598,6519 6599,6520 C6600,6522 6600,6522 6600,6523 C6600,6524 6601,6525 6601,6527 L6603,6533 C6603,6534 6604,6535 6605,6536 C6605,6537 6605,6538 6606,6539 C6606,6540 6607,6541 6607,6543 C6608,6544 6608,6544 6608,6546 C6609,6548 6611,6550 6612,6552 C6613,6557 6612,6554 6615,6559 L6618,6565 C6619,6566 6617,6564 6619,6565 L6619,6565 C6619,6566 6623,6563 6624,6563 C6628,6561 6625,6562 6628,6560 C6631,6558 6635,6556 6637,6554 L6641,6550 C6643,6549 6643,6548 6645,6547 C6646,6547 6646,6546 6647,6545 C6648,6545 6648,6545 6649,6544 C6649,6543 6650,6543 6651,6542 C6651,6542 6651,6542 6652,6541 L6652,6540 C6654,6540 6655,6538 6656,6537 L6657,6536 C6658,6535 6657,6536 6658,6535 L6662,6531 C6662,6530 6663,6530 6664,6529 C6665,6528 6664,6528 6666,6527 C6668,6526 6667,6527 6668,6525 L6668,6525 C6670,6523 6669,6523 6671,6522 L6673,6520 C6674,6519 6673,6519 6674,6518 L6680,6511 C6682,6510 6682,6509 6683,6508 L6685,6506 C6686,6505 6686,6506 6686,6504 L6686,6504 L6687,6503 L6688,6502 L6688,6501 L6695,6491 C6696,6490 6695,6490 6696,6490 L6696,6489 L6699,6484 C6701,6483 6700,6484 6701,6482 C6702,6480 6701,6481 6702,6480 C6705,6486 6746,6556 6746,6557 L6746,6557 L6746,6557 L6739,6557 L6733,6558 L6729,6558 C6727,6559 6728,6558 6728,6558 L6712,6561 C6710,6561 6710,6561 6708,6562 C6707,6563 6707,6563 6706,6563 L6704,6563 C6703,6563 6700,6564 6700,6564 L6699,6564 L6699,6564 C6698,6564 6698,6564 6696,6565 C6695,6565 6695,6565 6694,6566 L6692,6566 C6691,6566 6690,6567 6690,6567 L6688,6567 C6687,6567 6686,6568 6686,6568 L6684,6568 C6683,6569 6682,6569 6681,6569 C6681,6569 6680,6569 6680,6570 L6678,6570 C6677,6571 6676,6571 6675,6571 L6667,6574 C6664,6574 6662,6577 6659,6577 C6656,6578 6653,6581 6650,6581 C6648,6582 6634,6589 6633,6591 C6633,6593 6640,6603 6640,6604 L6642,6606 C6643,6607 6644,6609 6645,6611 C6646,6611 6646,6611 6647,6612 C6648,6613 6648,6614 6649,6615 C6652,6618 6652,6619 6654,6621 C6655,6622 6659,6627 6661,6628 L6664,6631 C6666,6634 6665,6632 6666,6634 C6667,6635 6667,6634 6669,6637 C6670,6638 6670,6637 6672,6639 C6673,6641 6672,6639 6674,6642 C6675,6643 6675,6642 6676,6643 C6676,6644 6677,6644 6677,6645 C6678,6645 6678,6645 6679,6646 C6679,6646 6679,6647 6680,6647 C6681,6647 6680,6647 6681,6648 C6683,6649 6683,6649 6684,6650 L6685,6651 L6687,6653 C6687,6653 6687,6653 6688,6654 C6691,6656 6690,6655 6692,6657 C6693,6658 6693,6658 6694,6658 L6701,6663 C6703,6665 6708,6668 6710,6669 C6710,6669 6710,6669 6711,6670 L6717,6673 C6718,6674 6718,6673 6718,6675 L6641,6720 L6641,6714 L6641,6710 L6641,6709 L6641,6708 C6641,6706 6639,6696 6640,6694 C6641,6693 6640,6694 6640,6692 L6640,6690 C6640,6690 6639,6690 6639,6689 C6639,6688 6639,6689 6639,6688 L6639,6686 C6639,6686 6639,6686 6639,6685 C6639,6685 6639,6684 6638,6684 L6638,6682 L6637,6673 C6636,6672 6636,6672 6636,6671 C6636,6669 6635,6669 6635,6667 L6634,6662 C6633,6660 6634,6661 6633,6658 C6632,6656 6632,6657 6632,6656 C6632,6655 6632,6654 6631,6653 C6631,6652 6632,6652 6631,6651 C6630,6648 6630,6649 6630,6648 C6630,6647 6629,6646 6629,6645 C6628,6644 6629,6644 6628,6642 C6628,6641 6627,6640 6627,6639 C6626,6636 6625,6635 6625,6634 C6624,6630 6623,6631 6622,6628 L6618,6616 C6610,6601 6611,6603 6606,6607 C6604,6608 6598,6611 6597,6613 C6596,6614 6594,6615 6593,6616 C6591,6617 6591,6618 6589,6619 C6588,6620 6586,6621 6585,6622 L6583,6624 C6578,6627 6581,6625 6579,6627 C6577,6628 6578,6627 6576,6630 C6575,6631 6575,6631 6574,6631 C6572,6633 6574,6632 6570,6635 C6569,6636 6570,6636 6569,6636 C6569,6637 6568,6637 6567,6638 C6566,6639 6567,6639 6566,6640 C6562,6643 6565,6641 6562,6643 C6561,6644 6562,6644 6561,6645 C6560,6645 6560,6646 6559,6646 C6558,6647 6559,6647 6558,6648 C6556,6649 6557,6649 6556,6650 C6556,6651 6555,6651 6554,6651 C6554,6652 6555,6652 6553,6653 C6552,6654 6552,6654 6552,6655 C6552,6655 6552,6656 6551,6656 L6551,6656 C6551,6657 6551,6656 6551,6657 C6549,6657 6549,6659 6548,6660 L6547,6661 C6547,6662 6546,6662 6546,6663 C6545,6664 6546,6663 6545,6664 L6542,6667 C6542,6668 6542,6668 6541,6669 L6537,6675 C6536,6676 6536,6676 6536,6677 L6533,6680 C6533,6680 6533,6680 6532,6681 C6532,6683 6532,6682 6531,6683 C6531,6684 6531,6684 6530,6685 L6530,6686 C6529,6687 6528,6689 6528,6690 C6524,6684 6520,6677 6516,6671 L6494,6632 C6490,6627 6485,6618 6483,6613 L6484,6613 L6491,6612 C6492,6612 6492,6613 6494,6612 L6496,6612 L6498,6612 C6498,6612 6498,6612 6499,6611 L6499,6611 L6501,6611 L6504,6611 L6506,6610 C6507,6610 6508,6611 6508,6610 L6510,6610 L6513,6609 L6516,6609 L6517,6609 C6520,6607 6518,6609 6521,6608 C6523,6607 6522,6608 6524,6607 L6533,6605 L6533,6605 C6534,6605 6537,6604 6537,6604 L6541,6603 C6542,6603 6542,6603 6543,6602 L6545,6602 L6557,6598 C6558,6597 6559,6597 6560,6597 C6564,6595 6563,6596 6568,6593 C6570,6593 6571,6592 6572,6592 C6575,6591 6578,6589 6580,6588 C6584,6587 6585,6586 6588,6584 C6589,6583 6596,6580 6596,6579 L6594,6574 C6591,6569 6592,6570 6588,6566 C6587,6565 6586,6563 6585,6562 L6580,6554 C6577,6552 6577,6551 6575,6549 C6575,6549 6575,6549 6574,6548 L6574,6548 C6573,6548 6574,6548 6574,6548 C6573,6546 6572,6546 6572,6545 C6570,6544 6571,6544 6568,6541 C6567,6541 6567,6540 6566,6539 C6565,6538 6565,6539 6564,6537 L6562,6535 C6561,6534 6561,6535 6560,6533 C6559,6531 6560,6533 6559,6532 C6558,6531 6557,6530 6557,6529 C6556,6529 6557,6530 6556,6529 C6554,6528 6555,6528 6554,6527 C6552,6526 6553,6526 6552,6525 L6551,6525 C6550,6524 6550,6523 6549,6522 L6548,6522 C6547,6521 6548,6521 6547,6521 C6546,6520 6547,6521 6545,6519 C6544,6518 6544,6519 6543,6518 L6542,6517 C6541,6516 6542,6517 6541,6516 C6540,6516 6540,6516 6540,6515 C6539,6514 6540,6515 6539,6515 L6537,6513 C6536,6513 6537,6513 6536,6512 C6535,6511 6536,6512 6535,6511 C6533,6510 6529,6507 6527,6506 L6518,6500 L6517,6499 L6517,6499 C6515,6498 6517,6499 6515,6498 L6512,6496 C6511,6496 6512,6497 6511,6496 C6511,6496 6511,6496 6511,6495 L6588,6450 L6588,6454 L6588,6465 L6588,6465 L6588,6465 L6588,6465 L6589,6468 C6589,6469 6589,6468 6589,6470 L6589,6476 C6590,6477 6589,6476 6589,6477 L6592,6489 L6592,6491 L6594,6501 C6595,6504 6594,6503 6595,6505 L6595,6507 C6595,6508 6596,6509 6596,6509 C6596,6511 6596,6511 6597,6513 L6597,6513 Z" id="Shape" fill="#FFFFFF"></path>
            </g>
        </g>
    </g>
</svg>